<svg fill="none" xmlns="http://www.w3.org/2000/svg" viewBox="0 0 1440 508"><g opacity="0.6" filter="url(#filter0_d_4_465)"><rect x="1030" y="78" width="423" height="222" fill="url(#paint0_linear_4_465)" shape-rendering="crispEdges"/></g><g filter="url(#filter1_d_4_465)"><rect width="1271" height="244" fill="url(#paint1_linear_4_465)"/></g><path opacity="0.6" d="M313.852 69.27v19.336h-2.784v-6.827h-6.504c-1.245 1.48-3.149 2.373-5.332 2.373-3.955 0-6.884-2.754-6.884-6.62 0-3.897 2.929-6.651 6.884-6.68 2.168.014 4.058.908 5.303 2.373h6.533v-3.956zm.703 23.408v2.256h-17.754v-8.35h2.783v6.094zm-15.323-19.336c-2.461 0-4.218 1.699-4.218 4.19 0 2.49 1.757 4.16 4.218 4.16 2.373 0 4.161-1.67 4.161-4.16s-1.788-4.19-4.161-4.19m6.534 2.139c.175.63.293 1.318.293 2.05 0 .703-.103 1.377-.293 1.992h5.302v-4.042zm34.013-6.24V82.6h-2.783v-2.52h-6.65v-2.168h6.65V75.07h-6.328c-1.626 4.073-5.581 6.753-11.397 8.116l-.966-2.286c6.299-1.391 9.712-4.306 10.166-8.173h-8.789V70.44h11.836c0 .85-.074 1.656-.206 2.432h5.684V69.24zm0 14.472v6.65h-14.355V93h15.146v2.227h-17.9v-6.973h14.326V85.91h-14.385v-2.197zm19.688-3.37v2.286h-5.537v4.863c2.431-.117 4.878-.278 7.177-.527l.205 2.05c-5.771.88-12.011.938-16.992.967l-.351-2.314c2.212 0 4.658-.015 7.177-.088v-4.95h-5.273V71.672h13.477v2.256h-10.723v6.416zm6.064-11.103v26.31h-2.783V69.24zm13.887 7.735c0 4.394 2.871 8.935 6.914 10.664l-1.523 2.168c-3.091-1.363-5.552-4.248-6.768-7.764-1.216 3.75-3.691 6.943-6.738 8.438l-1.612-2.198c3.955-1.846 6.885-6.797 6.914-11.308V74.19H370.6v-2.314h14.795v2.314h-5.977zm12.07-7.735v26.25h-2.783V69.24zm32.403 1.084v8.877h-7.559v2.871h10.606v2.256h-23.936v-2.256h10.605v-2.87h-7.558v-8.878zm-15.118 2.198v4.453h12.364v-4.453zm7.588 14.062c0 3.281 3.692 5.889 8.789 6.563l-1.054 2.197c-4.117-.645-7.53-2.461-9.141-5.156-1.611 2.695-5.024 4.511-9.141 5.156l-1.025-2.197c5.039-.674 8.76-3.282 8.76-6.563v-.762h2.812zm33.018-17.344v10.635h4.219v2.314h-4.219V95.49h-2.754V69.24zm-5.039 4.102v2.285h-15.557v-2.285h6.475v-3.75h2.783v3.75zm-7.676 4.219c3.75 0 6.504 2.52 6.533 6.093-.029 3.604-2.783 6.094-6.533 6.123-3.779-.029-6.533-2.52-6.533-6.123 0-3.574 2.754-6.093 6.533-6.093m0 2.285c-2.226 0-3.896 1.552-3.867 3.808-.029 2.285 1.641 3.809 3.867 3.78 2.227.029 3.867-1.495 3.867-3.78 0-2.256-1.64-3.808-3.867-3.808m31.787-8.555v2.285h-9.287v8.79c4.395-.015 7.339-.147 10.693-.792l.293 2.256c-3.662.645-6.826.82-11.718.82h-2.022V71.291zm8.291-2.022V88.4h-2.783v-9.785h-7.148V76.39h7.148v-7.12zm.674 23.555v2.256h-17.783v-8.174h2.812v5.918zm23.438-15.44c-.206-1.962-1.934-3.105-4.366-3.105-2.607 0-4.248 1.319-4.248 3.135 0 2.022 2.198 2.783 3.867 3.193l2.051.557c2.725.645 6.094 2.139 6.123 5.977-.029 3.574-2.871 6.21-7.881 6.21-4.746 0-7.734-2.373-7.939-6.24h3.223c.205 2.315 2.226 3.428 4.716 3.428 2.696 0 4.659-1.377 4.688-3.457-.029-1.846-1.758-2.607-4.014-3.193l-2.519-.674c-3.399-.938-5.537-2.666-5.537-5.625 0-3.662 3.281-6.094 7.558-6.094 4.307 0 7.324 2.461 7.412 5.889zm23.994-5.595V93h-2.959l-10.752-15.498h-.176V93h-3.223V71.79h2.989l10.752 15.526h.205V71.79zm15.879 5.596c-.206-1.963-1.934-3.106-4.366-3.106-2.607 0-4.248 1.319-4.248 3.135 0 2.022 2.198 2.783 3.867 3.193l2.051.557c2.725.645 6.094 2.139 6.123 5.977-.029 3.574-2.871 6.21-7.881 6.21-4.746 0-7.734-2.373-7.939-6.24h3.223c.205 2.315 2.226 3.428 4.716 3.428 2.696 0 4.659-1.377 4.688-3.457-.029-1.846-1.758-2.607-4.014-3.193l-2.519-.674c-3.399-.938-5.537-2.666-5.537-5.625 0-3.662 3.281-6.094 7.558-6.094 4.307 0 7.324 2.461 7.412 5.889zm28.271-8.145v26.25h-2.666V69.24zm-5.332.498v24.463H561V81.545h-2.959c-.234 5.127-2.432 8.32-5.684 8.29-3.427.03-5.654-3.573-5.654-9.257s2.227-9.258 5.654-9.228c3.194-.03 5.362 3.003 5.684 7.94H561v-9.552zm-11.309 4.219c-1.904 0-3.076 2.432-3.076 6.621 0 4.19 1.172 6.621 3.076 6.621 1.934 0 3.135-2.431 3.135-6.62 0-4.19-1.201-6.622-3.135-6.622m29.444 1.963c0 4.805 2.695 9.58 6.709 11.396l-1.699 2.227c-2.989-1.494-5.23-4.468-6.387-8.057-1.157 3.78-3.457 6.973-6.475 8.555l-1.758-2.256c4.073-1.933 6.797-7.002 6.797-11.865v-4.483h2.813zm12.422-6.68v26.31h-2.754V80.227h-5.86V77.97h5.86v-8.73zm8.759 21.739-2.343 8.085h-2.491l1.553-8.085z" fill="#F4F4F4"/><path d="M323.568 119.762v4.383c0 5.199 0 10.57-1.418 18.734l-4.855-.43c1.504-7.648 1.504-13.277 1.504-18.304v-.516h-22.387v-3.867zm4.512 25.824v3.91h-35.406v-3.91zm44.688-17.145v3.868h-27.157v-14.481h4.77v10.613zm3.867 8.766v3.91h-15.512v13.707h-4.812v-13.707h-15.168v-3.91zm33.601-18.863v3.48c0 3.631 0 7.606-1.031 13.106h5.371v3.867H399.15v16.07h-4.812v-16.07H379.17v-3.867h25.18c1.074-5.285 1.117-9.239 1.117-12.719h-22.129v-3.867zm42.453 27.886v3.911h-35.492v-3.911h15.297v-7.562h-11.387v-20.109h4.77v6.359h18.004v-6.359h4.769v20.109h-11.429v7.562zm-26.812-11.429h18.004v-6.059h-18.004zm59.769-18.821v14.739h5.973v3.91h-5.973v20.238h-4.769V115.98zm-10.656 3.696v3.867h-13.406v17.832c6.037 0 10.807-.301 16.156-1.246l.559 4.039c-6.016 1.031-11.258 1.203-18.262 1.203h-3.223v-25.695zm43.055 5.629c0 7.218 3.437 14.308 9.625 17.015l-2.879 3.825c-4.404-2.149-7.498-6.274-9.152-11.344-1.698 5.349-4.856 9.797-9.325 12.074l-3.007-3.867c6.316-2.965 9.839-10.442 9.882-17.703v-6.188h4.856zm18.219-9.325v38.887h-4.727v-22.472h-8.164v-3.868h8.164V115.98zm40.949 30.379v3.953h-35.492v-3.953h15.297v-6.316h-11.086v-12.719h22.343v-4.812h-22.429v-3.867h27.156v12.46h-22.301v5.028h23.203v3.91h-12.16v6.316zm45.504-30.336v28.489h-4.77v-9.625h-9.238c-1.869 2.084-4.619 3.351-7.734 3.351-5.844 0-10.27-4.211-10.27-9.926 0-5.8 4.426-9.968 10.27-9.968 3.093 0 5.822 1.246 7.691 3.308h9.281v-5.629zm.988 34.161v3.867h-26.469V141.59h4.77v8.594zm-22.73-27.586c-3.352 0-5.715 2.234-5.715 5.714 0 3.438 2.363 5.672 5.715 5.672 3.179 0 5.586-2.234 5.629-5.672-.043-3.48-2.45-5.714-5.629-5.714m9.796 2.922c.237.88.387 1.804.387 2.792 0 .946-.129 1.848-.344 2.708h7.133v-5.5zm49.973-9.54v19.68h-4.769v-3.394h-9.368v-3.653h9.368v-3.824h-8.852c-2.449 5.93-8.121 9.797-16.715 11.731l-1.676-3.911c9.131-1.89 13.686-5.908 14.352-11.086h-12.203v-3.867h17.531c0 1.225-.107 2.385-.258 3.481h7.821v-5.157zm0 21.184v10.227H639.99v3.222h21.785v3.825h-26.554v-10.614h20.754v-2.879h-20.797v-3.781zm28.102-8.98v3.824h-7.219v4.383c3.244-.129 6.467-.344 9.496-.645l.344 3.438c-8.25 1.16-17.188 1.375-24.406 1.375l-.645-3.825c3.201-.021 6.746-.043 10.398-.172v-4.554h-7.046v-13.621h18.777v3.867H674.58v5.93zm9.797-12.204v29.176h-4.813V115.98zm1.117 34.204v3.867h-27.156v-11.043h4.812v7.176zm266.621-3.825v3.953h-35.492v-3.953h15.297v-6.316H935.1v-12.719h22.343v-4.812h-22.429v-3.867h27.156v12.46h-22.301v5.028h23.203v3.91h-12.16v6.316zm7.262 4.985a3.356 3.356 0 0 1-3.352-3.352c0-1.804 1.504-3.308 3.352-3.308 1.761 0 3.308 1.504 3.308 3.308 0 1.848-1.547 3.352-3.308 3.352" fill="#F4F4F4"/><path d="M714.928 124.574v-4.683h24.793v4.683h-9.582V151h-5.586v-26.426zM741.396 151v-23.332h5.329v3.867h.257c.817-2.664 3.094-4.211 5.758-4.211.602 0 1.461.043 1.977.129v5.07c-.473-.171-1.633-.343-2.535-.343-3.051 0-5.286 2.105-5.286 5.07V151zm26.168.473c-7.046 0-11.343-4.684-11.343-11.989 0-7.218 4.383-12.117 11.043-12.117 5.715 0 10.656 3.567 10.656 11.774v1.718h-16.285c.064 3.975 2.406 6.317 5.972 6.317 2.407 0 4.039-1.031 4.727-2.406h5.371c-.988 4.039-4.726 6.703-10.141 6.703m-5.886-14.352h11c-.043-3.18-2.149-5.5-5.328-5.5-3.309 0-5.5 2.514-5.672 5.5m30.851 14.352c-7.047 0-11.343-4.684-11.343-11.989 0-7.218 4.382-12.117 11.043-12.117 5.714 0 10.656 3.567 10.656 11.774v1.718H786.6c.064 3.975 2.406 6.317 5.972 6.317 2.407 0 4.039-1.031 4.727-2.406h5.371c-.988 4.039-4.727 6.703-10.141 6.703m-5.886-14.352h11c-.043-3.18-2.149-5.5-5.329-5.5-3.308 0-5.5 2.514-5.671 5.5m25.996.215V151h-5.5v-31.109h5.371v11.73h.301c1.074-2.621 3.308-4.254 6.918-4.254 4.855 0 8.035 3.137 8.035 8.766V151h-5.457v-14.008c0-3.18-1.719-4.984-4.598-4.984-2.965 0-5.07 1.933-5.07 5.328m30.507 14.137c-6.789 0-11.171-4.813-11.171-12.032 0-7.261 4.382-12.074 11.171-12.074 6.833 0 11.172 4.813 11.172 12.074 0 7.219-4.339 12.032-11.172 12.032m.043-4.383c3.739 0 5.586-3.395 5.586-7.692 0-4.253-1.847-7.691-5.586-7.691-3.824 0-5.671 3.438-5.671 7.691 0 4.297 1.847 7.692 5.671 7.692m30.293-5.887v-13.535h5.457V151h-5.285v-4.125h-.258c-1.074 2.578-3.523 4.426-7.003 4.426-4.598 0-7.778-3.18-7.821-8.766v-14.867h5.5v14.008c0 2.965 1.762 4.855 4.426 4.855 2.406 0 4.984-1.761 4.984-5.328m23.934-6.875c-.344-1.762-1.805-2.879-4.125-2.879-2.363 0-4.082 1.16-4.039 2.75-.043 1.203.945 2.106 3.309 2.664l3.953.817c4.425.988 6.531 3.008 6.574 6.359-.043 4.383-3.867 7.434-9.969 7.434-5.93 0-9.453-2.664-10.012-7.133h5.586c.344 1.976 1.891 2.965 4.426 2.965 2.621 0 4.383-1.075 4.383-2.793 0-1.332-1.074-2.192-3.395-2.707l-3.738-.817c-4.34-.859-6.574-3.136-6.574-6.488 0-4.297 3.695-7.133 9.41-7.133 5.586 0 9.024 2.707 9.41 6.961zm20.195 17.145c-7.047 0-11.343-4.684-11.343-11.989 0-7.218 4.382-12.117 11.043-12.117 5.714 0 10.656 3.567 10.656 11.774v1.718h-16.285c.064 3.975 2.406 6.317 5.972 6.317 2.407 0 4.039-1.031 4.727-2.406h5.371c-.988 4.039-4.727 6.703-10.141 6.703m-5.886-14.352h11c-.043-3.18-2.149-5.5-5.329-5.5-3.308 0-5.5 2.514-5.671 5.5" fill="#1AA873"/><path opacity="0.5" d="m1271 244-241 56v-56z" fill="#0E0E0E"/><circle cx="719" cy="432" r="6" fill="#1B1A19"/><circle opacity="0.5" cx="719" cy="466" r="6" fill="#1B1A19"/><circle opacity="0.3" cx="719" cy="500" r="6" fill="#1B1A19"/><defs><filter id="filter0_d_4_465" x="1022" y="78" width="439" height="250" filterUnits="userSpaceOnUse" color-interpolation-filters="sRGB"><feFlood flood-opacity="0" result="BackgroundImageFix"/><feColorMatrix in="SourceAlpha" type="matrix" values="0 0 0 0 0 0 0 0 0 0 0 0 0 0 0 0 0 0 127 0" result="hardAlpha"/><feOffset dy="20"/><feGaussianBlur stdDeviation="4"/><feComposite in2="hardAlpha" operator="out"/><feColorMatrix type="matrix" values="0 0 0 0 0 0 0 0 0 0 0 0 0 0 0 0 0 0 0.1 0"/><feBlend mode="normal" in2="BackgroundImageFix" result="effect1_dropShadow_4_465"/><feBlend mode="normal" in="SourceGraphic" in2="effect1_dropShadow_4_465" result="shape"/></filter><filter id="filter1_d_4_465" x="-8" y="0" width="1287" height="272" filterUnits="userSpaceOnUse" color-interpolation-filters="sRGB"><feFlood flood-opacity="0" result="BackgroundImageFix"/><feColorMatrix in="SourceAlpha" type="matrix" values="0 0 0 0 0 0 0 0 0 0 0 0 0 0 0 0 0 0 127 0" result="hardAlpha"/><feOffset dy="20"/><feGaussianBlur stdDeviation="4"/><feComposite in2="hardAlpha" operator="out"/><feColorMatrix type="matrix" values="0 0 0 0 0 0 0 0 0 0 0 0 0 0 0 0 0 0 0.1 0"/><feBlend mode="normal" in2="BackgroundImageFix" result="effect1_dropShadow_4_465"/><feBlend mode="normal" in="SourceGraphic" in2="effect1_dropShadow_4_465" result="shape"/></filter><linearGradient id="paint0_linear_4_465" x1="1030" y1="239" x2="1438" y2="239" gradientUnits="userSpaceOnUse"><stop stop-color="#16705A"/><stop offset="1" stop-color="#16705A" stop-opacity="0.5"/></linearGradient><linearGradient id="paint1_linear_4_465" x1="-2.40593e-06" y1="123.141" x2="1271" y2="123.141" gradientUnits="userSpaceOnUse"><stop stop-color="#004E31"/><stop offset="0.5" stop-color="#1B1A19"/></linearGradient></defs></svg>