<svg width="1440" height="508" viewBox="0 0 1440 508" fill="none" xmlns="http://www.w3.org/2000/svg">
<g opacity="0.6" filter="url(#filter0_d_4_465)">
<rect x="1030" y="78" width="423" height="222" fill="url(#paint0_linear_4_465)" shape-rendering="crispEdges"/>
</g>
<g filter="url(#filter1_d_4_465)">
<rect width="1271" height="244" fill="url(#paint1_linear_4_465)"/>
</g>
<path opacity="0.6" d="M313.852 69.2695V88.6055H311.068V81.7793H304.564C303.319 83.2588 301.415 84.1523 299.232 84.1523C295.277 84.1523 292.348 81.3984 292.348 77.5312C292.348 73.6348 295.277 70.8809 299.232 70.8516C301.4 70.8662 303.29 71.7598 304.535 73.2246H311.068V69.2695H313.852ZM314.555 92.6777V94.9336H296.801V86.584H299.584V92.6777H314.555ZM299.232 73.3418C296.771 73.3418 295.014 75.041 295.014 77.5312C295.014 80.0215 296.771 81.6914 299.232 81.6914C301.605 81.6914 303.393 80.0215 303.393 77.5312C303.393 75.041 301.605 73.3418 299.232 73.3418ZM305.766 75.4805C305.941 76.1104 306.059 76.7988 306.059 77.5312C306.059 78.2344 305.956 78.9082 305.766 79.5234H311.068V75.4805H305.766ZM339.779 69.2402V82.5996H336.996V80.0801H330.346V77.9121H336.996V75.0703H330.668C329.042 79.1426 325.087 81.8232 319.271 83.1855L318.305 80.9004C324.604 79.5088 328.017 76.5938 328.471 72.7266H319.682V70.4414H331.518C331.518 71.291 331.444 72.0967 331.312 72.873H336.996V69.2402H339.779ZM339.779 83.7129V90.3633H325.424V93H340.57V95.2266H322.67V88.2539H336.996V85.9102H322.611V83.7129H339.779ZM359.467 80.3438V82.6289H353.93V87.4922C356.361 87.375 358.808 87.2139 361.107 86.9648L361.312 89.0156C355.541 89.8945 349.301 89.9531 344.32 89.9824L343.969 87.668C346.181 87.668 348.627 87.6533 351.146 87.5801V82.6289H345.873V71.6719H359.35V73.9277H348.627V80.3438H359.467ZM365.531 69.2402V95.5488H362.748V69.2402H365.531ZM379.418 76.9746C379.418 81.3691 382.289 85.9102 386.332 87.6387L384.809 89.8066C381.718 88.4443 379.257 85.5586 378.041 82.043C376.825 85.793 374.35 88.9863 371.303 90.4805L369.691 88.2832C373.646 86.4375 376.576 81.4863 376.605 76.9746V74.1914H370.6V71.877H385.395V74.1914H379.418V76.9746ZM391.488 69.2402V95.4902H388.705V69.2402H391.488ZM423.891 70.3242V79.2012H416.332V82.0723H426.938V84.3281H403.002V82.0723H413.607V79.2012H406.049V70.3242H423.891ZM408.773 72.5215V76.9746H421.137V72.5215H408.773ZM416.361 86.584C416.361 89.8652 420.053 92.4727 425.15 93.1465L424.096 95.3438C419.979 94.6992 416.566 92.8828 414.955 90.1875C413.344 92.8828 409.931 94.6992 405.814 95.3438L404.789 93.1465C409.828 92.4727 413.549 89.8652 413.549 86.584V85.8223H416.361V86.584ZM449.379 69.2402V79.875H453.598V82.1895H449.379V95.4902H446.625V69.2402H449.379ZM444.34 73.3418V75.627H428.783V73.3418H435.258V69.5918H438.041V73.3418H444.34ZM436.664 77.5605C440.414 77.5605 443.168 80.0801 443.197 83.6543C443.168 87.2578 440.414 89.748 436.664 89.7773C432.885 89.748 430.131 87.2578 430.131 83.6543C430.131 80.0801 432.885 77.5605 436.664 77.5605ZM436.664 79.8457C434.438 79.8457 432.768 81.3984 432.797 83.6543C432.768 85.9395 434.438 87.4629 436.664 87.4336C438.891 87.4629 440.531 85.9395 440.531 83.6543C440.531 81.3984 438.891 79.8457 436.664 79.8457ZM468.451 71.291V73.5762H459.164V82.3652C463.559 82.3506 466.503 82.2188 469.857 81.5742L470.15 83.8301C466.488 84.4746 463.324 84.6504 458.432 84.6504H456.41V71.291H468.451ZM476.742 69.2695V88.4004H473.959V78.6152H466.811V76.3887H473.959V69.2695H476.742ZM477.416 92.8242V95.0801H459.633V86.9062H462.445V92.8242H477.416ZM500.854 77.3848C500.648 75.4219 498.92 74.2793 496.488 74.2793C493.881 74.2793 492.24 75.5977 492.24 77.4141C492.24 79.4355 494.438 80.1973 496.107 80.6074L498.158 81.1641C500.883 81.8086 504.252 83.3027 504.281 87.1406C504.252 90.7148 501.41 93.3516 496.4 93.3516C491.654 93.3516 488.666 90.9785 488.461 87.1113H491.684C491.889 89.4258 493.91 90.5391 496.4 90.5391C499.096 90.5391 501.059 89.1621 501.088 87.082C501.059 85.2363 499.33 84.4746 497.074 83.8887L494.555 83.2148C491.156 82.2773 489.018 80.5488 489.018 77.5898C489.018 73.9277 492.299 71.4961 496.576 71.4961C500.883 71.4961 503.9 73.957 503.988 77.3848H500.854ZM524.848 71.7891V93H521.889L511.137 77.502H510.961V93H507.738V71.7891H510.727L521.479 87.3164H521.684V71.7891H524.848ZM540.727 77.3848C540.521 75.4219 538.793 74.2793 536.361 74.2793C533.754 74.2793 532.113 75.5977 532.113 77.4141C532.113 79.4355 534.311 80.1973 535.98 80.6074L538.031 81.1641C540.756 81.8086 544.125 83.3027 544.154 87.1406C544.125 90.7148 541.283 93.3516 536.273 93.3516C531.527 93.3516 528.539 90.9785 528.334 87.1113H531.557C531.762 89.4258 533.783 90.5391 536.273 90.5391C538.969 90.5391 540.932 89.1621 540.961 87.082C540.932 85.2363 539.203 84.4746 536.947 83.8887L534.428 83.2148C531.029 82.2773 528.891 80.5488 528.891 77.5898C528.891 73.9277 532.172 71.4961 536.449 71.4961C540.756 71.4961 543.773 73.957 543.861 77.3848H540.727ZM568.998 69.2402V95.4902H566.332V69.2402H568.998ZM563.666 69.7383V94.2012H561V81.5449H558.041C557.807 86.6719 555.609 89.8652 552.357 89.8359C548.93 89.8652 546.703 86.2617 546.703 80.5781C546.703 74.8945 548.93 71.3203 552.357 71.3496C555.551 71.3203 557.719 74.3525 558.041 79.2891H561V69.7383H563.666ZM552.357 73.957C550.453 73.957 549.281 76.3887 549.281 80.5781C549.281 84.7676 550.453 87.1992 552.357 87.1992C554.291 87.1992 555.492 84.7676 555.492 80.5781C555.492 76.3887 554.291 73.957 552.357 73.957ZM581.801 75.9199C581.801 80.7246 584.496 85.5 588.51 87.3164L586.811 89.543C583.822 88.0488 581.581 85.0752 580.424 81.4863C579.267 85.2656 576.967 88.459 573.949 90.041L572.191 87.7852C576.264 85.8516 578.988 80.7832 578.988 75.9199V71.4375H581.801V75.9199ZM594.223 69.2402V95.5488H591.469V80.2266H585.609V77.9707H591.469V69.2402H594.223ZM602.982 90.9785L600.639 99.0645H598.148L599.701 90.9785H602.982Z" fill="#F4F4F4"/>
<path d="M323.568 119.762V124.145C323.568 129.344 323.568 134.715 322.15 142.879L317.295 142.449C318.799 134.801 318.799 129.172 318.799 124.145V123.629H296.412V119.762H323.568ZM328.08 145.586V149.496H292.674V145.586H328.08ZM372.768 128.441V132.309H345.611V117.828H350.381V128.441H372.768ZM376.635 137.207V141.117H361.123V154.824H356.311V141.117H341.143V137.207H376.635ZM410.236 118.344V121.824C410.236 125.455 410.236 129.43 409.205 134.93H414.576V138.797H399.15V154.867H394.338V138.797H379.17V134.93H404.35C405.424 129.645 405.467 125.691 405.467 122.211H383.338V118.344H410.236ZM452.689 146.23V150.141H417.197V146.23H432.494V138.668H421.107V118.559H425.877V124.918H443.881V118.559H448.65V138.668H437.221V146.23H452.689ZM425.877 134.801H443.881V128.742H425.877V134.801ZM485.646 115.98V130.719H491.619V134.629H485.646V154.867H480.877V115.98H485.646ZM474.99 119.676V123.543H461.584V141.375C467.621 141.375 472.391 141.074 477.74 140.129L478.299 144.168C472.283 145.199 467.041 145.371 460.037 145.371H456.814V119.676H474.99ZM518.045 125.305C518.045 132.523 521.482 139.613 527.67 142.32L524.791 146.145C520.387 143.996 517.293 139.871 515.639 134.801C513.941 140.15 510.783 144.598 506.314 146.875L503.307 143.008C509.623 140.043 513.146 132.566 513.189 125.305V119.117H518.045V125.305ZM536.264 115.98V154.867H531.537V132.395H523.373V128.527H531.537V115.98H536.264ZM577.213 146.359V150.312H541.721V146.359H557.018V140.043H545.932V127.324H568.275V122.512H545.846V118.645H573.002V131.105H550.701V136.133H573.904V140.043H561.744V146.359H577.213ZM622.717 116.023V144.512H617.947V134.887H608.709C606.84 136.971 604.09 138.238 600.975 138.238C595.131 138.238 590.705 134.027 590.705 128.312C590.705 122.512 595.131 118.344 600.975 118.344C604.068 118.344 606.797 119.59 608.666 121.652H617.947V116.023H622.717ZM623.705 150.184V154.051H597.236V141.59H602.006V150.184H623.705ZM600.975 122.598C597.623 122.598 595.26 124.832 595.26 128.312C595.26 131.75 597.623 133.984 600.975 133.984C604.154 133.984 606.561 131.75 606.604 128.312C606.561 124.832 604.154 122.598 600.975 122.598ZM610.771 125.52C611.008 126.4 611.158 127.324 611.158 128.312C611.158 129.258 611.029 130.16 610.814 131.02H617.947V125.52H610.771ZM660.744 115.98V135.66H655.975V132.266H646.607V128.613H655.975V124.789H647.123C644.674 130.719 639.002 134.586 630.408 136.52L628.732 132.609C637.863 130.719 642.418 126.701 643.084 121.523H630.881V117.656H648.412C648.412 118.881 648.305 120.041 648.154 121.137H655.975V115.98H660.744ZM660.744 137.164V147.391H639.99V150.613H661.775V154.438H635.221V143.824H655.975V140.945H635.178V137.164H660.744ZM688.846 128.184V132.008H681.627V136.391C684.871 136.262 688.094 136.047 691.123 135.746L691.467 139.184C683.217 140.344 674.279 140.559 667.061 140.559L666.416 136.734C669.617 136.713 673.162 136.691 676.814 136.562V132.008H669.768V118.387H688.545V122.254H674.58V128.184H688.846ZM698.643 115.98V145.156H693.83V115.98H698.643ZM699.76 150.184V154.051H672.604V143.008H677.416V150.184H699.76ZM966.381 146.359V150.312H930.889V146.359H946.186V140.043H935.1V127.324H957.443V122.512H935.014V118.645H962.17V131.105H939.869V136.133H963.072V140.043H950.912V146.359H966.381ZM973.643 151.344C971.795 151.344 970.291 149.84 970.291 147.992C970.291 146.188 971.795 144.684 973.643 144.684C975.404 144.684 976.951 146.188 976.951 147.992C976.951 149.84 975.404 151.344 973.643 151.344Z" fill="#F4F4F4"/>
<path d="M714.928 124.574V119.891H739.721V124.574H730.139V151H724.553V124.574H714.928ZM741.396 151V127.668H746.725V131.535H746.982C747.799 128.871 750.076 127.324 752.74 127.324C753.342 127.324 754.201 127.367 754.717 127.453V132.523C754.244 132.352 753.084 132.18 752.182 132.18C749.131 132.18 746.896 134.285 746.896 137.25V151H741.396ZM767.564 151.473C760.518 151.473 756.221 146.789 756.221 139.484C756.221 132.266 760.604 127.367 767.264 127.367C772.979 127.367 777.92 130.934 777.92 139.141V140.859H761.635C761.699 144.834 764.041 147.176 767.607 147.176C770.014 147.176 771.646 146.145 772.334 144.77H777.705C776.717 148.809 772.979 151.473 767.564 151.473ZM761.678 137.121H772.678C772.635 133.941 770.529 131.621 767.35 131.621C764.041 131.621 761.85 134.135 761.678 137.121ZM792.529 151.473C785.482 151.473 781.186 146.789 781.186 139.484C781.186 132.266 785.568 127.367 792.229 127.367C797.943 127.367 802.885 130.934 802.885 139.141V140.859H786.6C786.664 144.834 789.006 147.176 792.572 147.176C794.979 147.176 796.611 146.145 797.299 144.77H802.67C801.682 148.809 797.943 151.473 792.529 151.473ZM786.643 137.121H797.643C797.6 133.941 795.494 131.621 792.314 131.621C789.006 131.621 786.814 134.135 786.643 137.121ZM812.639 137.336V151H807.139V119.891H812.51V131.621H812.811C813.885 129 816.119 127.367 819.729 127.367C824.584 127.367 827.764 130.504 827.764 136.133V151H822.307V136.992C822.307 133.812 820.588 132.008 817.709 132.008C814.744 132.008 812.639 133.941 812.639 137.336ZM843.146 151.473C836.357 151.473 831.975 146.66 831.975 139.441C831.975 132.18 836.357 127.367 843.146 127.367C849.979 127.367 854.318 132.18 854.318 139.441C854.318 146.66 849.979 151.473 843.146 151.473ZM843.189 147.09C846.928 147.09 848.775 143.695 848.775 139.398C848.775 135.145 846.928 131.707 843.189 131.707C839.365 131.707 837.518 135.145 837.518 139.398C837.518 143.695 839.365 147.09 843.189 147.09ZM873.482 141.203V127.668H878.939V151H873.654V146.875H873.396C872.322 149.453 869.873 151.301 866.393 151.301C861.795 151.301 858.615 148.121 858.572 142.535V127.668H864.072V141.676C864.072 144.641 865.834 146.531 868.498 146.531C870.904 146.531 873.482 144.77 873.482 141.203ZM897.416 134.328C897.072 132.566 895.611 131.449 893.291 131.449C890.928 131.449 889.209 132.609 889.252 134.199C889.209 135.402 890.197 136.305 892.561 136.863L896.514 137.68C900.939 138.668 903.045 140.688 903.088 144.039C903.045 148.422 899.221 151.473 893.119 151.473C887.189 151.473 883.666 148.809 883.107 144.34H888.693C889.037 146.316 890.584 147.305 893.119 147.305C895.74 147.305 897.502 146.23 897.502 144.512C897.502 143.18 896.428 142.32 894.107 141.805L890.369 140.988C886.029 140.129 883.795 137.852 883.795 134.5C883.795 130.203 887.49 127.367 893.205 127.367C898.791 127.367 902.229 130.074 902.615 134.328H897.416ZM917.611 151.473C910.564 151.473 906.268 146.789 906.268 139.484C906.268 132.266 910.65 127.367 917.311 127.367C923.025 127.367 927.967 130.934 927.967 139.141V140.859H911.682C911.746 144.834 914.088 147.176 917.654 147.176C920.061 147.176 921.693 146.145 922.381 144.77H927.752C926.764 148.809 923.025 151.473 917.611 151.473ZM911.725 137.121H922.725C922.682 133.941 920.576 131.621 917.396 131.621C914.088 131.621 911.896 134.135 911.725 137.121Z" fill="#1AA873"/>
<path opacity="0.5" d="M1271 244L1030 300V244H1271Z" fill="#0E0E0E"/>
<circle cx="719" cy="432" r="6" fill="#1B1A19"/>
<circle opacity="0.5" cx="719" cy="466" r="6" fill="#1B1A19"/>
<circle opacity="0.3" cx="719" cy="500" r="6" fill="#1B1A19"/>
<defs>
<filter id="filter0_d_4_465" x="1022" y="78" width="439" height="250" filterUnits="userSpaceOnUse" color-interpolation-filters="sRGB">
<feFlood flood-opacity="0" result="BackgroundImageFix"/>
<feColorMatrix in="SourceAlpha" type="matrix" values="0 0 0 0 0 0 0 0 0 0 0 0 0 0 0 0 0 0 127 0" result="hardAlpha"/>
<feOffset dy="20"/>
<feGaussianBlur stdDeviation="4"/>
<feComposite in2="hardAlpha" operator="out"/>
<feColorMatrix type="matrix" values="0 0 0 0 0 0 0 0 0 0 0 0 0 0 0 0 0 0 0.1 0"/>
<feBlend mode="normal" in2="BackgroundImageFix" result="effect1_dropShadow_4_465"/>
<feBlend mode="normal" in="SourceGraphic" in2="effect1_dropShadow_4_465" result="shape"/>
</filter>
<filter id="filter1_d_4_465" x="-8" y="0" width="1287" height="272" filterUnits="userSpaceOnUse" color-interpolation-filters="sRGB">
<feFlood flood-opacity="0" result="BackgroundImageFix"/>
<feColorMatrix in="SourceAlpha" type="matrix" values="0 0 0 0 0 0 0 0 0 0 0 0 0 0 0 0 0 0 127 0" result="hardAlpha"/>
<feOffset dy="20"/>
<feGaussianBlur stdDeviation="4"/>
<feComposite in2="hardAlpha" operator="out"/>
<feColorMatrix type="matrix" values="0 0 0 0 0 0 0 0 0 0 0 0 0 0 0 0 0 0 0.1 0"/>
<feBlend mode="normal" in2="BackgroundImageFix" result="effect1_dropShadow_4_465"/>
<feBlend mode="normal" in="SourceGraphic" in2="effect1_dropShadow_4_465" result="shape"/>
</filter>
<linearGradient id="paint0_linear_4_465" x1="1030" y1="239" x2="1438" y2="239" gradientUnits="userSpaceOnUse">
<stop stop-color="#16705A"/>
<stop offset="1" stop-color="#16705A" stop-opacity="0.5"/>
</linearGradient>
<linearGradient id="paint1_linear_4_465" x1="-2.40593e-06" y1="123.141" x2="1271" y2="123.141" gradientUnits="userSpaceOnUse">
<stop stop-color="#004E31"/>
<stop offset="0.5" stop-color="#1B1A19"/>
</linearGradient>
</defs>
</svg>
