<svg xmlns="http://www.w3.org/2000/svg" fill="none" viewBox="0 0 800 53"><path stroke="#CCC" d="M574 20.5h226m-800 0h226"/><path fill="#6B6B6B" d="M291.133 26.586v1.828h-19.219v-1.828h8.484v-4.57h2.204v4.57zm-1.781-13.406v1.804h-6.727c.094 2.942 3.211 5.38 7.523 6.024l-.843 1.734c-3.504-.55-6.434-2.215-7.805-4.664-1.371 2.45-4.289 4.113-7.805 4.664l-.843-1.734c4.312-.645 7.406-3.082 7.523-6.024h-6.727V13.18h6.75v-2.813h2.204v2.813zm20.765-3.188v21h-2.25v-21zm-6.258 2.25c0 6.14-2.625 11.485-9.82 14.93l-1.172-1.805c5.59-2.66 8.309-6.445 8.742-11.344h-7.734v-1.78zm22.688 3.094c-.024 3.726 2.133 7.523 5.273 9.047l-1.382 1.781c-2.286-1.184-4.055-3.539-4.969-6.352-.949 3-2.789 5.508-5.18 6.75l-1.383-1.804c3.235-1.547 5.414-5.578 5.414-9.422V11.75h2.227zm9.07-5.344v8.367h3.375v1.899h-3.375v10.734h-2.226v-21zm23.531 10.242v1.805H340v-1.805h4.594v-2.836c-1.617-.656-2.532-1.71-2.532-3.093 0-2.485 2.883-3.938 7.5-3.938 4.594 0 7.5 1.453 7.5 3.938 0 1.383-.925 2.449-2.554 3.093v2.836zm-9.586 3.235c4.524 0 7.243 1.336 7.243 3.726 0 2.438-2.719 3.75-7.243 3.75-4.57 0-7.289-1.312-7.289-3.75 0-2.39 2.719-3.726 7.289-3.726m0 1.71c-3.21 0-5.039.727-5.039 2.016 0 1.313 1.829 2.063 5.039 2.04 3.165.023 5.016-.727 5.016-2.04 0-1.289-1.851-2.015-5.016-2.015m0-13.1c-3.257 0-5.226.82-5.203 2.226-.023 1.406 1.946 2.203 5.203 2.203s5.204-.797 5.204-2.203c0-1.407-1.946-2.227-5.204-2.227m-2.718 8.155h5.461v-2.25a16.4 16.4 0 0 1-2.743.211c-.984 0-1.898-.07-2.718-.187zm21.211-4.054c0 3.328 2.179 7.03 5.367 8.53l-1.266 1.735c-2.355-1.136-4.218-3.504-5.156-6.257-.973 3.011-2.941 5.601-5.344 6.796l-1.312-1.757c3.187-1.524 5.508-5.485 5.508-9.047v-2.227h-4.735v-1.851h11.508v1.851h-4.57zm9.047-6.188v8.32h3.375v1.875h-3.375v10.805h-2.227v-21zm20.742 0v8.367h3.258v1.852h-3.258v10.758h-2.227V9.992zm-5.485 2.203c-.023 6.07-2.695 11.485-9.609 14.907l-1.242-1.735c5.262-2.625 8.121-6.422 8.578-11.32h-7.524v-1.852zm28.243 6.68v1.828h-4.43v3.89c1.945-.093 3.902-.222 5.742-.421l.164 1.64c-4.617.704-9.609.75-13.594.774l-.281-1.852c1.77 0 3.727-.011 5.742-.07v-3.96h-4.218v-8.766h10.781v1.804h-8.578v5.133zm4.851-8.883V31.04h-2.226V9.992zm20.367 2.016v2.062c0 2.602 0 5.508-.797 9.797l-2.25-.234c.821-4.055.821-7.031.821-9.563v-.258h-12.75v-1.804zm2.157 14.297v1.851h-19.149v-1.851h7.289v-7.407h2.203v7.407zm24.867-16.29v11.65h-2.227v-11.65zm-9.774 2.79c-.023 2.789 2.016 5.343 5.227 6.328l-1.078 1.758c-2.473-.797-4.313-2.45-5.274-4.594-.949 2.308-2.824 4.125-5.343 4.969l-1.102-1.758c3.281-1.078 5.297-3.797 5.297-6.703v-2.04h2.273zm9.914 10.008v1.78h-2.765v4.337h2.976v1.804H458.57V28.93h3v-4.336h-2.812v-1.782zm-9.211 6.117h4.243v-4.336h-4.243zm28.758-18.938v8.133h3.375v1.828h-3.375V31.04h-2.226V9.992zm-5.648 2.016v1.805h-7.594V23.96c3.527-.012 6.176-.164 9.164-.703l.281 1.875c-3.281.586-6.07.703-9.984.68h-1.688V12.008zm20.742-.235v1.782h4.57v-3.54h2.227V25.32h-2.227v-5.437h-4.57v1.828h-9.75v-9.938zm-7.547 1.805v6.375h5.367v-6.375zm14.813 15.164v1.805h-14.18v-6.633h2.25v4.828zm-7.266-10.687h4.57v-2.672h-4.57zm13.477 5.906c.023-3.07.937-4.008 2.484-4.969.984-.61 1.734-1.453 1.734-2.695 0-1.477-1.125-2.39-2.531-2.39-1.266 0-2.484.773-2.601 2.507h-2.532c.094-2.977 2.344-4.617 5.133-4.617 3.047 0 5.086 1.828 5.086 4.5 0 1.875-.891 3.14-2.391 4.055-1.406.843-1.945 1.71-1.992 3.609v.14h-2.39zm1.289 5.203c-.914 0-1.688-.75-1.664-1.664-.024-.914.75-1.664 1.664-1.664.89 0 1.664.75 1.664 1.664s-.774 1.664-1.664 1.664"/></svg>