<svg xmlns="http://www.w3.org/2000/svg" width="375" height="197" fill="none"><g clip-path="url(#a)"><g filter="url(#b)" opacity=".6"><path fill="url(#c)" d="M261 31.6h169.2v88.8H261z" shape-rendering="crispEdges"/></g><g filter="url(#d)"><path fill="url(#e)" d="M0 0h357v98H0z"/></g><path fill="#F4F4F4" d="M49.14 27.507v7.734h-1.113v-2.73h-2.601c-.498.591-1.26.949-2.133.949-1.582 0-2.754-1.102-2.754-2.649 0-1.558 1.172-2.66 2.754-2.671.867.005 1.623.363 2.121.949h2.613v-1.582zm.282 9.363v.903H42.32v-3.34h1.114v2.437zm-6.129-7.734c-.984 0-1.687.68-1.687 1.675 0 .997.703 1.665 1.687 1.665.95 0 1.664-.668 1.664-1.665 0-.996-.715-1.675-1.664-1.675m2.613.855c.07.252.117.528.117.82a2.7 2.7 0 0 1-.117.797h2.121v-1.617zm13.606-2.496v5.344h-1.114V31.83h-2.66v-.867h2.66v-1.137h-2.53c-.651 1.63-2.233 2.701-4.56 3.246l-.386-.914c2.52-.556 3.885-1.723 4.066-3.27h-3.515v-.913h4.734c0 .34-.03.662-.082.972h2.273v-1.453zm0 5.79v2.66H53.77v1.054h6.058v.89h-7.16v-2.788h5.73v-.938h-5.754v-.879zm7.875-1.348v.914h-2.215v1.945a49 49 0 0 0 2.871-.211l.082.82c-2.309.352-4.805.375-6.797.387l-.14-.926c.884 0 1.863-.006 2.87-.035v-1.98H61.95v-4.383h5.39v.902h-4.288v2.566zm2.425-4.442V38.02H68.7V27.495zm5.555 3.094c0 1.758 1.149 3.574 2.766 4.266l-.61.867c-1.236-.545-2.22-1.7-2.707-3.106-.486 1.5-1.476 2.778-2.695 3.375l-.644-.879c1.582-.738 2.754-2.718 2.765-4.523v-1.113H71.84v-.926h5.918v.926h-2.39zm4.828-3.094v10.5h-1.113v-10.5zm12.961.434v3.55h-3.023v1.149h4.242v.902h-9.574v-.902h4.242V31.48h-3.024v-3.551zm-6.047.879v1.78h4.946v-1.78zm3.035 5.625c0 1.312 1.477 2.355 3.516 2.625l-.422.879c-1.646-.258-3.011-.985-3.656-2.063-.644 1.078-2.01 1.805-3.656 2.063l-.41-.88c2.015-.269 3.503-1.312 3.503-2.624v-.305h1.125zm13.208-6.938v4.254h1.687v.926h-1.687v5.32h-1.102v-10.5zm-2.016 1.64v.915h-6.223v-.914h2.59v-1.5h1.113v1.5zm-3.07 1.688c1.5 0 2.601 1.008 2.613 2.438-.012 1.441-1.113 2.437-2.613 2.449-1.512-.012-2.614-1.008-2.614-2.45 0-1.429 1.102-2.437 2.614-2.437m0 .914c-.891 0-1.559.621-1.547 1.524-.012.914.656 1.523 1.547 1.511.89.012 1.546-.597 1.546-1.511 0-.903-.656-1.524-1.546-1.524m12.714-3.422v.915h-3.714v3.515c1.757-.006 2.935-.058 4.277-.316l.117.902c-1.465.258-2.73.328-4.687.328h-.809v-5.344zm3.317-.808v7.652h-1.113v-3.914h-2.86v-.89h2.86v-2.848zm.269 9.422v.902h-7.113v-3.27h1.125v2.368zm9.375-6.176c-.082-.785-.773-1.242-1.746-1.242-1.043 0-1.699.527-1.699 1.254 0 .808.879 1.113 1.547 1.277l.82.223c1.09.258 2.438.855 2.449 2.39-.011 1.43-1.148 2.485-3.152 2.485-1.898 0-3.094-.95-3.176-2.496h1.289c.082.925.891 1.37 1.887 1.37 1.078 0 1.863-.55 1.875-1.382-.012-.738-.703-1.043-1.605-1.277l-1.008-.27c-1.36-.375-2.215-1.066-2.215-2.25 0-1.465 1.313-2.437 3.023-2.437 1.723 0 2.93.984 2.965 2.355zm9.598-2.238v8.484h-1.184l-4.3-6.2h-.071V37h-1.289v-8.484h1.196l4.3 6.21h.082v-6.21zm6.352 2.238c-.082-.785-.774-1.242-1.746-1.242-1.043 0-1.7.527-1.7 1.254 0 .808.879 1.113 1.547 1.277l.82.223c1.09.258 2.438.855 2.45 2.39-.012 1.43-1.149 2.485-3.153 2.485-1.898 0-3.093-.95-3.175-2.496h1.289c.082.925.89 1.37 1.886 1.37 1.079 0 1.864-.55 1.875-1.382-.011-.738-.703-1.043-1.605-1.277l-1.008-.27c-1.359-.375-2.215-1.066-2.215-2.25 0-1.465 1.313-2.437 3.024-2.437 1.722 0 2.929.984 2.965 2.355zm11.308-3.258v10.5h-1.066v-10.5zm-2.133.2v9.785H148v-5.063h-1.184c-.093 2.05-.972 3.328-2.273 3.316-1.371.012-2.262-1.43-2.262-3.703s.891-3.703 2.262-3.691c1.277-.012 2.145 1.201 2.273 3.176H148v-3.82zm-4.523 1.687c-.762 0-1.231.973-1.231 2.648s.469 2.649 1.231 2.649c.773 0 1.254-.973 1.254-2.649 0-1.675-.481-2.648-1.254-2.648m11.777.785c0 1.922 1.078 3.832 2.684 4.559l-.68.89c-1.195-.597-2.092-1.787-2.554-3.222-.463 1.511-1.383 2.789-2.59 3.421l-.703-.902c1.628-.773 2.718-2.8 2.718-4.746v-1.793h1.125zm4.969-2.672V38.02h-1.101v-6.13h-2.344v-.902h2.344v-3.492zm3.504 8.695-.938 3.235h-.996l.621-3.235z" opacity=".6"/><path fill="#F4F4F4" d="M53.227 48.504v1.753c0 2.08 0 4.228-.567 7.494l-1.942-.172c.601-3.06.601-5.311.601-7.322v-.206h-8.954v-1.547zm1.805 10.33v1.563H40.87v-1.564zm17.875-6.858v1.547H62.045V47.73h1.907v4.246zm1.547 3.506v1.564h-6.205v5.483h-1.925v-5.483h-6.067v-1.564zm13.44-7.545v1.392c0 1.452 0 3.042-.412 5.242h2.148v1.547h-6.17v6.428h-1.925v-6.428h-6.067V54.57H85.54c.43-2.114.447-3.695.447-5.088h-8.852v-1.546zm16.982 11.154v1.564H90.679v-1.564h6.119v-3.025h-4.555v-8.044h1.908v2.544h7.201v-2.544h1.908v8.044h-4.572v3.025zM94.151 54.52h7.201v-2.423h-7.201zm23.908-7.528v5.895h2.389v1.565h-2.389v8.095h-1.908V46.99zm-4.263 1.478v1.547h-5.362v7.133c2.414 0 4.322-.12 6.462-.498l.224 1.615c-2.407.413-4.504.482-7.305.482h-1.289v-10.28zm17.222 2.252c0 2.887 1.375 5.723 3.85 6.806l-1.152 1.53c-1.761-.86-2.999-2.51-3.661-4.538-.678 2.14-1.942 3.92-3.729 4.83l-1.203-1.547c2.526-1.186 3.936-4.176 3.953-7.081v-2.475h1.942zm7.287-3.73v15.555h-1.89v-8.99h-3.266V52.01h3.266v-5.019zm16.38 12.152v1.581h-14.197v-1.581h6.119v-2.527h-4.434V51.53h8.937v-1.925h-8.972v-1.547h10.863v4.984h-8.921v2.011h9.282v1.564h-4.864v2.527zm18.202-12.135v11.396h-1.908v-3.85h-3.695c-.748.833-1.848 1.34-3.094 1.34-2.338 0-4.108-1.684-4.108-3.97 0-2.32 1.77-3.987 4.108-3.987 1.237 0 2.329.498 3.076 1.323h3.713v-2.252zm.395 13.664v1.547h-10.587v-4.984h1.907v3.438zm-9.092-11.034c-1.341 0-2.286.894-2.286 2.286 0 1.375.945 2.269 2.286 2.269 1.272 0 2.234-.894 2.251-2.269-.017-1.392-.979-2.286-2.251-2.286m3.919 1.169a4.3 4.3 0 0 1 .154 1.117c0 .378-.051.74-.137 1.083h2.853v-2.2zm19.989-3.816v7.872h-1.908v-1.358h-3.747v-1.46h3.747v-1.53h-3.541c-.979 2.371-3.248 3.918-6.686 4.692l-.67-1.564c3.652-.757 5.474-2.364 5.741-4.435h-4.882v-1.547h7.013c0 .49-.043.954-.103 1.393h3.128V46.99zm0 8.474v4.09h-8.302v1.29h8.714v1.529h-10.622V58.13h8.302v-1.152h-8.319v-1.512zm11.24-3.593v1.53h-2.887v1.753a65 65 0 0 0 3.798-.258l.138 1.376c-3.3.463-6.875.55-9.763.55l-.258-1.53c1.281-.009 2.699-.017 4.16-.069v-1.822h-2.819v-5.448h7.511V49.5h-5.586v2.372zm3.919-4.88v11.67h-1.925v-11.67zm.447 13.68v1.547h-10.863v-4.417h1.925v2.87zm106.648-1.53v1.582h-14.197v-1.581h6.119v-2.527h-4.434V51.53h8.937v-1.925h-8.972v-1.547h10.863v4.984h-8.92v2.011h9.281v1.564h-4.864v2.527zm2.905 1.994a1.343 1.343 0 0 1-1.341-1.34 1.34 1.34 0 0 1 1.341-1.324c.705 0 1.323.602 1.323 1.324 0 .739-.618 1.34-1.323 1.34"/><path fill="#1AA873" d="M209.771 50.429v-1.874h9.917v1.874h-3.833v10.57h-2.234v-10.57zm10.588 10.57v-9.333h2.131v1.547h.103c.327-1.065 1.237-1.684 2.303-1.684a6 6 0 0 1 .791.051v2.028c-.189-.068-.653-.137-1.014-.137-1.221 0-2.114.842-2.114 2.028v5.5zm10.467.19c-2.819 0-4.538-1.874-4.538-4.796 0-2.888 1.753-4.847 4.417-4.847 2.286 0 4.263 1.426 4.263 4.71v.687h-6.514c.026 1.59.962 2.526 2.389 2.526.962 0 1.616-.412 1.891-.962h2.148c-.395 1.616-1.891 2.681-4.056 2.681m-2.355-5.742h4.4c-.017-1.271-.859-2.2-2.131-2.2-1.324 0-2.2 1.006-2.269 2.2m12.341 5.741c-2.819 0-4.538-1.873-4.538-4.795 0-2.888 1.753-4.847 4.417-4.847 2.286 0 4.263 1.426 4.263 4.71v.687h-6.514c.026 1.59.962 2.526 2.389 2.526.962 0 1.616-.412 1.891-.962h2.148c-.395 1.616-1.891 2.681-4.056 2.681m-2.355-5.74h4.4c-.017-1.272-.859-2.2-2.131-2.2-1.324 0-2.2 1.005-2.269 2.2m10.398.085V61h-2.2V48.555h2.149v4.693h.12c.43-1.049 1.324-1.702 2.767-1.702 1.943 0 3.214 1.255 3.214 3.506V61h-2.182v-5.603c0-1.272-.688-1.994-1.839-1.994-1.186 0-2.029.774-2.029 2.131m12.204 5.655c-2.716 0-4.469-1.925-4.469-4.812 0-2.905 1.753-4.83 4.469-4.83 2.732 0 4.468 1.925 4.468 4.83 0 2.887-1.736 4.812-4.468 4.812m.017-1.753c1.495 0 2.234-1.358 2.234-3.077 0-1.701-.739-3.076-2.234-3.076-1.53 0-2.269 1.375-2.269 3.076 0 1.72.739 3.077 2.269 3.077m12.117-2.355v-5.414h2.183V61h-2.114v-1.65h-.103c-.43 1.031-1.41 1.77-2.802 1.77-1.839 0-3.111-1.272-3.128-3.506v-5.947h2.2v5.603c0 1.186.705 1.943 1.77 1.943.963 0 1.994-.705 1.994-2.132m9.573-2.75c-.137-.704-.721-1.151-1.65-1.151-.945 0-1.632.464-1.615 1.1-.017.481.378.842 1.323 1.065l1.581.327c1.771.395 2.613 1.203 2.63 2.544-.017 1.753-1.547 2.973-3.987 2.973-2.372 0-3.782-1.065-4.005-2.853h2.234c.138.79.757 1.186 1.771 1.186 1.048 0 1.753-.43 1.753-1.117 0-.533-.43-.877-1.358-1.083l-1.495-.327c-1.736-.343-2.63-1.254-2.63-2.595 0-1.719 1.478-2.853 3.764-2.853 2.234 0 3.609 1.083 3.764 2.784zm8.079 6.858c-2.819 0-4.538-1.873-4.538-4.795 0-2.888 1.753-4.847 4.417-4.847 2.286 0 4.263 1.426 4.263 4.71v.687h-6.514c.025 1.59.962 2.526 2.389 2.526.962 0 1.615-.412 1.89-.962h2.149c-.396 1.616-1.891 2.681-4.056 2.681m-2.355-5.74h4.4c-.017-1.272-.86-2.2-2.131-2.2-1.324 0-2.2 1.005-2.269 2.2"/><path fill="#0E0E0E" d="m357.4 97.999-96.4 22.4v-22.4z" opacity=".5"/></g><circle cx="187.4" cy="165.4" r="2.4" fill="#1B1A19"/><circle cx="187.4" cy="179" r="2.4" fill="#1B1A19" opacity=".5"/><circle cx="187.4" cy="192.6" r="2.4" fill="#1B1A19" opacity=".3"/><defs><linearGradient id="c" x1="261" x2="424.2" y1="96" y2="96" gradientUnits="userSpaceOnUse"><stop stop-color="#16705A"/><stop offset="1" stop-color="#16705A" stop-opacity=".5"/></linearGradient><linearGradient id="e" x1="0" x2="357" y1="49.458" y2="49.458" gradientUnits="userSpaceOnUse"><stop stop-color="#004E31"/><stop offset=".5" stop-color="#1B1A19"/></linearGradient><filter id="b" width="175.6" height="100" x="257.8" y="31.6" color-interpolation-filters="sRGB" filterUnits="userSpaceOnUse"><feFlood flood-opacity="0" result="BackgroundImageFix"/><feColorMatrix in="SourceAlpha" result="hardAlpha" values="0 0 0 0 0 0 0 0 0 0 0 0 0 0 0 0 0 0 127 0"/><feOffset dy="8"/><feGaussianBlur stdDeviation="1.6"/><feComposite in2="hardAlpha" operator="out"/><feColorMatrix values="0 0 0 0 0 0 0 0 0 0 0 0 0 0 0 0 0 0 0.1 0"/><feBlend in2="BackgroundImageFix" result="effect1_dropShadow_9_526"/><feBlend in="SourceGraphic" in2="effect1_dropShadow_9_526" result="shape"/></filter><filter id="d" width="363.4" height="109.2" x="-3.2" y="0" color-interpolation-filters="sRGB" filterUnits="userSpaceOnUse"><feFlood flood-opacity="0" result="BackgroundImageFix"/><feColorMatrix in="SourceAlpha" result="hardAlpha" values="0 0 0 0 0 0 0 0 0 0 0 0 0 0 0 0 0 0 127 0"/><feOffset dy="8"/><feGaussianBlur stdDeviation="1.6"/><feComposite in2="hardAlpha" operator="out"/><feColorMatrix values="0 0 0 0 0 0 0 0 0 0 0 0 0 0 0 0 0 0 0.1 0"/><feBlend in2="BackgroundImageFix" result="effect1_dropShadow_9_526"/><feBlend in="SourceGraphic" in2="effect1_dropShadow_9_526" result="shape"/></filter><clipPath id="a"><path fill="#fff" d="M0 0h375v120H0z"/></clipPath></defs></svg>