<svg width="375" height="197" viewBox="0 0 375 197" fill="none" xmlns="http://www.w3.org/2000/svg">
<g clip-path="url(#clip0_9_526)">
<g opacity="0.6" filter="url(#filter0_d_9_526)">
<rect x="261" y="31.5996" width="169.2" height="88.8" fill="url(#paint0_linear_9_526)" shape-rendering="crispEdges"/>
</g>
<g filter="url(#filter1_d_9_526)">
<rect width="357" height="98" fill="url(#paint1_linear_9_526)"/>
</g>
<path opacity="0.6" d="M49.1406 27.5068V35.2412H48.0273V32.5107H45.4258C44.9277 33.1025 44.166 33.46 43.293 33.46C41.7109 33.46 40.5391 32.3584 40.5391 30.8115C40.5391 29.2529 41.7109 28.1514 43.293 28.1396C44.1602 28.1455 44.916 28.5029 45.4141 29.0889H48.0273V27.5068H49.1406ZM49.4219 36.8701V37.7725H42.3203V34.4326H43.4336V36.8701H49.4219ZM43.293 29.1357C42.3086 29.1357 41.6055 29.8154 41.6055 30.8115C41.6055 31.8076 42.3086 32.4756 43.293 32.4756C44.2422 32.4756 44.957 31.8076 44.957 30.8115C44.957 29.8154 44.2422 29.1357 43.293 29.1357ZM45.9062 29.9912C45.9766 30.2432 46.0234 30.5186 46.0234 30.8115C46.0234 31.0928 45.9824 31.3623 45.9062 31.6084H48.0273V29.9912H45.9062ZM59.5117 27.4951V32.8389H58.3984V31.8311H55.7383V30.9639H58.3984V29.8271H55.8672C55.2168 31.4561 53.6348 32.5283 51.3086 33.0732L50.9219 32.1592C53.4414 31.6025 54.8066 30.4365 54.9883 28.8896H51.4727V27.9756H56.207C56.207 28.3154 56.1777 28.6377 56.125 28.9482H58.3984V27.4951H59.5117ZM59.5117 33.2842V35.9443H53.7695V36.999H59.8281V37.8896H52.668V35.1006H58.3984V34.1631H52.6445V33.2842H59.5117ZM67.3867 31.9365V32.8506H65.1719V34.7959C66.1445 34.749 67.123 34.6846 68.043 34.585L68.125 35.4053C65.8164 35.7568 63.3203 35.7803 61.3281 35.792L61.1875 34.8662C62.0723 34.8662 63.0508 34.8604 64.0586 34.8311V32.8506H61.9492V28.4678H67.3398V29.3701H63.0508V31.9365H67.3867ZM69.8125 27.4951V38.0186H68.6992V27.4951H69.8125ZM75.3672 30.5889C75.3672 32.3467 76.5156 34.1631 78.1328 34.8545L77.5234 35.7217C76.2871 35.1768 75.3027 34.0225 74.8164 32.6162C74.3301 34.1162 73.3398 35.3936 72.1211 35.9912L71.4766 35.1123C73.0586 34.374 74.2305 32.3936 74.2422 30.5889V29.4756H71.8398V28.5498H77.7578V29.4756H75.3672V30.5889ZM80.1953 27.4951V37.9951H79.082V27.4951H80.1953ZM93.1562 27.9287V31.4795H90.1328V32.6279H94.375V33.5303H84.8008V32.6279H89.043V31.4795H86.0195V27.9287H93.1562ZM87.1094 28.8076V30.5889H92.0547V28.8076H87.1094ZM90.1445 34.4326C90.1445 35.7451 91.6211 36.7881 93.6602 37.0576L93.2383 37.9365C91.5918 37.6787 90.2266 36.9521 89.582 35.874C88.9375 36.9521 87.5723 37.6787 85.9258 37.9365L85.5156 37.0576C87.5312 36.7881 89.0195 35.7451 89.0195 34.4326V34.1279H90.1445V34.4326ZM103.352 27.4951V31.749H105.039V32.6748H103.352V37.9951H102.25V27.4951H103.352ZM101.336 29.1357V30.0498H95.1133V29.1357H97.7031V27.6357H98.8164V29.1357H101.336ZM98.2656 30.8232C99.7656 30.8232 100.867 31.8311 100.879 33.2607C100.867 34.7021 99.7656 35.6982 98.2656 35.71C96.7539 35.6982 95.6523 34.7021 95.6523 33.2607C95.6523 31.8311 96.7539 30.8232 98.2656 30.8232ZM98.2656 31.7373C97.375 31.7373 96.707 32.3584 96.7188 33.2607C96.707 34.1748 97.375 34.7842 98.2656 34.7725C99.1562 34.7842 99.8125 34.1748 99.8125 33.2607C99.8125 32.3584 99.1562 31.7373 98.2656 31.7373ZM110.98 28.3154V29.2295H107.266V32.7451C109.023 32.7393 110.201 32.6865 111.543 32.4287L111.66 33.3311C110.195 33.5889 108.93 33.6592 106.973 33.6592H106.164V28.3154H110.98ZM114.297 27.5068V35.1592H113.184V31.2451H110.324V30.3545H113.184V27.5068H114.297ZM114.566 36.9287V37.8311H107.453V34.5615H108.578V36.9287H114.566ZM123.941 30.7529C123.859 29.9678 123.168 29.5107 122.195 29.5107C121.152 29.5107 120.496 30.0381 120.496 30.7646C120.496 31.5732 121.375 31.8779 122.043 32.042L122.863 32.2646C123.953 32.5225 125.301 33.1201 125.312 34.6553C125.301 36.085 124.164 37.1396 122.16 37.1396C120.262 37.1396 119.066 36.1904 118.984 34.6436H120.273C120.355 35.5693 121.164 36.0146 122.16 36.0146C123.238 36.0146 124.023 35.4639 124.035 34.6318C124.023 33.8936 123.332 33.5889 122.43 33.3545L121.422 33.085C120.062 32.71 119.207 32.0186 119.207 30.835C119.207 29.3701 120.52 28.3975 122.23 28.3975C123.953 28.3975 125.16 29.3818 125.195 30.7529H123.941ZM133.539 28.5146V36.999H132.355L128.055 30.7998H127.984V36.999H126.695V28.5146H127.891L132.191 34.7256H132.273V28.5146H133.539ZM139.891 30.7529C139.809 29.9678 139.117 29.5107 138.145 29.5107C137.102 29.5107 136.445 30.0381 136.445 30.7646C136.445 31.5732 137.324 31.8779 137.992 32.042L138.812 32.2646C139.902 32.5225 141.25 33.1201 141.262 34.6553C141.25 36.085 140.113 37.1396 138.109 37.1396C136.211 37.1396 135.016 36.1904 134.934 34.6436H136.223C136.305 35.5693 137.113 36.0146 138.109 36.0146C139.188 36.0146 139.973 35.4639 139.984 34.6318C139.973 33.8936 139.281 33.5889 138.379 33.3545L137.371 33.085C136.012 32.71 135.156 32.0186 135.156 30.835C135.156 29.3701 136.469 28.3975 138.18 28.3975C139.902 28.3975 141.109 29.3818 141.145 30.7529H139.891ZM151.199 27.4951V37.9951H150.133V27.4951H151.199ZM149.066 27.6943V37.4795H148V32.417H146.816C146.723 34.4678 145.844 35.7451 144.543 35.7334C143.172 35.7451 142.281 34.3037 142.281 32.0303C142.281 29.7568 143.172 28.3271 144.543 28.3389C145.82 28.3271 146.688 29.54 146.816 31.5146H148V27.6943H149.066ZM144.543 29.3818C143.781 29.3818 143.312 30.3545 143.312 32.0303C143.312 33.7061 143.781 34.6787 144.543 34.6787C145.316 34.6787 145.797 33.7061 145.797 32.0303C145.797 30.3545 145.316 29.3818 144.543 29.3818ZM156.32 30.167C156.32 32.0889 157.398 33.999 159.004 34.7256L158.324 35.6162C157.129 35.0186 156.232 33.8291 155.77 32.3936C155.307 33.9053 154.387 35.1826 153.18 35.8154L152.477 34.9131C154.105 34.1396 155.195 32.1123 155.195 30.167V28.374H156.32V30.167ZM161.289 27.4951V38.0186H160.188V31.8896H157.844V30.9873H160.188V27.4951H161.289ZM164.793 36.1904L163.855 39.4248H162.859L163.48 36.1904H164.793Z" fill="#F4F4F4"/>
<path d="M53.2273 48.5037V50.2568C53.2273 52.3365 53.2273 54.485 52.6601 57.7506L50.718 57.5787C51.3195 54.5193 51.3195 52.2678 51.3195 50.2568V50.0506H42.3648V48.5037H53.2273ZM55.032 58.8334V60.3975H40.8695V58.8334H55.032ZM72.907 51.9756V53.5225H62.0445V47.7303H63.9523V51.9756H72.907ZM74.4539 55.4818V57.0459H68.2492V62.5287H66.3242V57.0459H60.257V55.4818H74.4539ZM87.8945 47.9365V49.3287C87.8945 50.7811 87.8945 52.3709 87.482 54.5709H89.6305V56.1178H83.4601V62.5459H81.5351V56.1178H75.468V54.5709H85.5398C85.9695 52.4568 85.9867 50.8756 85.9867 49.4834H77.1351V47.9365H87.8945ZM104.876 59.0912V60.6553H90.6789V59.0912H96.7976V56.0662H92.243V48.0225H94.1508V50.5662H101.352V48.0225H103.26V56.0662H98.6883V59.0912H104.876ZM94.1508 54.5193H101.352V52.0959H94.1508V54.5193ZM118.059 46.9912V52.8865H120.448V54.4506H118.059V62.5459H116.151V46.9912H118.059ZM113.796 48.4693V50.0162H108.434V57.149C110.848 57.149 112.756 57.0287 114.896 56.6506L115.12 58.2662C112.713 58.6787 110.616 58.7475 107.815 58.7475H106.526V48.4693H113.796ZM131.018 50.7209C131.018 53.6084 132.393 56.4443 134.868 57.5271L133.716 59.0568C131.955 58.1975 130.717 56.5475 130.055 54.5193C129.377 56.6592 128.113 58.4381 126.326 59.349L125.123 57.8021C127.649 56.6162 129.059 53.6256 129.076 50.7209V48.2459H131.018V50.7209ZM138.305 46.9912V62.5459H136.415V53.5568H133.149V52.01H136.415V46.9912H138.305ZM154.685 59.1428V60.724H140.488V59.1428H146.607V56.6162H142.173V51.5287H151.11V49.6037H142.138V48.0568H153.001V53.0412H144.08V55.0521H153.362V56.6162H148.498V59.1428H154.685ZM172.887 47.0084V58.4037H170.979V54.5537H167.284C166.536 55.3873 165.436 55.8943 164.19 55.8943C161.852 55.8943 160.082 54.21 160.082 51.924C160.082 49.6037 161.852 47.9365 164.19 47.9365C165.427 47.9365 166.519 48.435 167.266 49.26H170.979V47.0084H172.887ZM173.282 60.6725V62.2193H162.695V57.235H164.602V60.6725H173.282ZM164.19 49.6381C162.849 49.6381 161.904 50.5318 161.904 51.924C161.904 53.299 162.849 54.1928 164.19 54.1928C165.462 54.1928 166.424 53.299 166.441 51.924C166.424 50.5318 165.462 49.6381 164.19 49.6381ZM168.109 50.8068C168.203 51.1592 168.263 51.5287 168.263 51.924C168.263 52.3021 168.212 52.6631 168.126 53.0068H170.979V50.8068H168.109ZM188.098 46.9912V54.8631H186.19V53.5053H182.443V52.0443H186.19V50.5146H182.649C181.67 52.8865 179.401 54.4334 175.963 55.2068L175.293 53.6428C178.945 52.8865 180.767 51.2795 181.034 49.2084H176.152V47.6615H183.165C183.165 48.1514 183.122 48.6154 183.062 49.0537H186.19V46.9912H188.098ZM188.098 55.4646V59.5553H179.796V60.8443H188.51V62.374H177.888V58.1287H186.19V56.9771H177.871V55.4646H188.098ZM199.338 51.8725V53.4021H196.451V55.1553C197.748 55.1037 199.037 55.0178 200.249 54.8975L200.387 56.2725C197.087 56.7365 193.512 56.8225 190.624 56.8225L190.366 55.2928C191.647 55.2842 193.065 55.2756 194.526 55.224V53.4021H191.707V47.9537H199.218V49.5006H193.632V51.8725H199.338ZM203.257 46.9912V58.6615H201.332V46.9912H203.257ZM203.704 60.6725V62.2193H192.841V57.8021H194.766V60.6725H203.704ZM310.352 59.1428V60.724H296.155V59.1428H302.274V56.6162H297.84V51.5287H306.777V49.6037H297.805V48.0568H308.668V53.0412H299.748V55.0521H309.029V56.6162H304.165V59.1428H310.352ZM313.257 61.1365C312.518 61.1365 311.916 60.535 311.916 59.7959C311.916 59.074 312.518 58.4725 313.257 58.4725C313.962 58.4725 314.58 59.074 314.58 59.7959C314.58 60.535 313.962 61.1365 313.257 61.1365Z" fill="#F4F4F4"/>
<path d="M209.771 50.4287V48.5553H219.688V50.4287H215.855V60.999H213.621V50.4287H209.771ZM220.359 60.999V51.6662H222.49V53.2131H222.593C222.92 52.1475 223.83 51.5287 224.896 51.5287C225.137 51.5287 225.48 51.5459 225.687 51.5803V53.6084C225.498 53.5396 225.034 53.4709 224.673 53.4709C223.452 53.4709 222.559 54.3131 222.559 55.499V60.999H220.359ZM230.826 61.1881C228.007 61.1881 226.288 59.3146 226.288 56.3928C226.288 53.5053 228.041 51.5459 230.705 51.5459C232.991 51.5459 234.968 52.9725 234.968 56.2553V56.9428H228.454C228.48 58.5326 229.416 59.4693 230.843 59.4693C231.805 59.4693 232.459 59.0568 232.734 58.5068H234.882C234.487 60.1225 232.991 61.1881 230.826 61.1881ZM228.471 55.4475H232.871C232.854 54.1756 232.012 53.2475 230.74 53.2475C229.416 53.2475 228.54 54.2529 228.471 55.4475ZM240.812 61.1881C237.993 61.1881 236.274 59.3146 236.274 56.3928C236.274 53.5053 238.027 51.5459 240.691 51.5459C242.977 51.5459 244.954 52.9725 244.954 56.2553V56.9428H238.44C238.466 58.5326 239.402 59.4693 240.829 59.4693C241.791 59.4693 242.445 59.0568 242.72 58.5068H244.868C244.473 60.1225 242.977 61.1881 240.812 61.1881ZM238.457 55.4475H242.857C242.84 54.1756 241.998 53.2475 240.726 53.2475C239.402 53.2475 238.526 54.2529 238.457 55.4475ZM248.855 55.5334V60.999H246.655V48.5553H248.804V53.2475H248.924C249.354 52.199 250.248 51.5459 251.691 51.5459C253.634 51.5459 254.905 52.8006 254.905 55.0521V60.999H252.723V55.3959C252.723 54.124 252.035 53.4021 250.884 53.4021C249.698 53.4021 248.855 54.1756 248.855 55.5334ZM261.059 61.1881C258.343 61.1881 256.59 59.2631 256.59 56.3756C256.59 53.4709 258.343 51.5459 261.059 51.5459C263.791 51.5459 265.527 53.4709 265.527 56.3756C265.527 59.2631 263.791 61.1881 261.059 61.1881ZM261.076 59.435C262.571 59.435 263.31 58.0771 263.31 56.3584C263.31 54.6568 262.571 53.2818 261.076 53.2818C259.546 53.2818 258.807 54.6568 258.807 56.3584C258.807 58.0771 259.546 59.435 261.076 59.435ZM273.193 57.0803V51.6662H275.376V60.999H273.262V59.349H273.159C272.729 60.3803 271.749 61.1193 270.357 61.1193C268.518 61.1193 267.246 59.8475 267.229 57.6131V51.6662H269.429V57.2693C269.429 58.4553 270.134 59.2115 271.199 59.2115C272.162 59.2115 273.193 58.5068 273.193 57.0803ZM282.766 54.3303C282.629 53.6256 282.045 53.1787 281.116 53.1787C280.171 53.1787 279.484 53.6428 279.501 54.2787C279.484 54.76 279.879 55.1209 280.824 55.3443L282.405 55.6709C284.176 56.0662 285.018 56.874 285.035 58.2146C285.018 59.9678 283.488 61.1881 281.048 61.1881C278.676 61.1881 277.266 60.1225 277.043 58.335H279.277C279.415 59.1256 280.034 59.5209 281.048 59.5209C282.096 59.5209 282.801 59.0912 282.801 58.4037C282.801 57.8709 282.371 57.5271 281.443 57.3209L279.948 56.9943C278.212 56.6506 277.318 55.7396 277.318 54.399C277.318 52.6803 278.796 51.5459 281.082 51.5459C283.316 51.5459 284.691 52.6287 284.846 54.3303H282.766ZM290.845 61.1881C288.026 61.1881 286.307 59.3146 286.307 56.3928C286.307 53.5053 288.06 51.5459 290.724 51.5459C293.01 51.5459 294.987 52.9725 294.987 56.2553V56.9428H288.473C288.498 58.5326 289.435 59.4693 290.862 59.4693C291.824 59.4693 292.477 59.0568 292.752 58.5068H294.901C294.505 60.1225 293.01 61.1881 290.845 61.1881ZM288.49 55.4475H292.89C292.873 54.1756 292.03 53.2475 290.759 53.2475C289.435 53.2475 288.559 54.2529 288.49 55.4475Z" fill="#1AA873"/>
<path opacity="0.5" d="M357.4 97.999L261 120.399V97.999H357.4Z" fill="#0E0E0E"/>
</g>
<circle cx="187.4" cy="165.4" r="2.4" fill="#1B1A19"/>
<circle opacity="0.5" cx="187.4" cy="179" r="2.4" fill="#1B1A19"/>
<circle opacity="0.3" cx="187.4" cy="192.6" r="2.4" fill="#1B1A19"/>
<defs>
<filter id="filter0_d_9_526" x="257.8" y="31.5996" width="175.6" height="100" filterUnits="userSpaceOnUse" color-interpolation-filters="sRGB">
<feFlood flood-opacity="0" result="BackgroundImageFix"/>
<feColorMatrix in="SourceAlpha" type="matrix" values="0 0 0 0 0 0 0 0 0 0 0 0 0 0 0 0 0 0 127 0" result="hardAlpha"/>
<feOffset dy="8"/>
<feGaussianBlur stdDeviation="1.6"/>
<feComposite in2="hardAlpha" operator="out"/>
<feColorMatrix type="matrix" values="0 0 0 0 0 0 0 0 0 0 0 0 0 0 0 0 0 0 0.1 0"/>
<feBlend mode="normal" in2="BackgroundImageFix" result="effect1_dropShadow_9_526"/>
<feBlend mode="normal" in="SourceGraphic" in2="effect1_dropShadow_9_526" result="shape"/>
</filter>
<filter id="filter1_d_9_526" x="-3.2" y="0" width="363.4" height="109.2" filterUnits="userSpaceOnUse" color-interpolation-filters="sRGB">
<feFlood flood-opacity="0" result="BackgroundImageFix"/>
<feColorMatrix in="SourceAlpha" type="matrix" values="0 0 0 0 0 0 0 0 0 0 0 0 0 0 0 0 0 0 127 0" result="hardAlpha"/>
<feOffset dy="8"/>
<feGaussianBlur stdDeviation="1.6"/>
<feComposite in2="hardAlpha" operator="out"/>
<feColorMatrix type="matrix" values="0 0 0 0 0 0 0 0 0 0 0 0 0 0 0 0 0 0 0.1 0"/>
<feBlend mode="normal" in2="BackgroundImageFix" result="effect1_dropShadow_9_526"/>
<feBlend mode="normal" in="SourceGraphic" in2="effect1_dropShadow_9_526" result="shape"/>
</filter>
<linearGradient id="paint0_linear_9_526" x1="261" y1="95.9996" x2="424.2" y2="95.9996" gradientUnits="userSpaceOnUse">
<stop stop-color="#16705A"/>
<stop offset="1" stop-color="#16705A" stop-opacity="0.5"/>
</linearGradient>
<linearGradient id="paint1_linear_9_526" x1="-6.75781e-07" y1="49.4581" x2="357" y2="49.4581" gradientUnits="userSpaceOnUse">
<stop stop-color="#004E31"/>
<stop offset="0.5" stop-color="#1B1A19"/>
</linearGradient>
<clipPath id="clip0_9_526">
<rect width="375" height="120" fill="white"/>
</clipPath>
</defs>
</svg>
