<svg xmlns="http://www.w3.org/2000/svg" fill="none" viewBox="0 0 343 18"><path fill="#6B6B6B" d="M117.025 11.863v.774h-9.539v-.774h4.301v-2.39h.902v2.39zm-.914-6.668v.762h-3.398c.006 1.635 1.74 2.836 3.738 3.164l-.351.727c-1.67-.3-3.2-1.137-3.856-2.438-.662 1.3-2.191 2.139-3.867 2.438l-.363-.727c2.009-.328 3.756-1.53 3.761-3.164h-3.398v-.762h3.41V3.754h.902v1.441zm10.36-1.664V13.95h-.926V3.531zm-3.082 1.137c-.012 3-1.407 5.648-4.899 7.324l-.504-.75c2.819-1.336 4.254-3.334 4.465-5.824h-3.984v-.75zm11.343 1.664c0 1.84 1.219 3.727 2.696 4.453l-.563.738c-1.148-.603-2.109-1.834-2.566-3.28-.469 1.54-1.453 2.853-2.625 3.48l-.586-.739c1.523-.75 2.73-2.754 2.742-4.652V4.434h.902zm4.571-2.8v4.23h1.746v.797h-1.746v5.39h-.914V3.531zm11.801 5.156v.761h-9.493v-.761h2.356V7.223c-.832-.323-1.301-.856-1.301-1.559 0-1.23 1.406-1.934 3.691-1.934 2.262 0 3.68.704 3.68 1.934 0 .697-.463 1.23-1.289 1.547v1.476zm-4.747 1.558c2.239 0 3.575.645 3.586 1.84-.011 1.184-1.347 1.84-3.586 1.84-2.261 0-3.597-.656-3.597-1.84 0-1.195 1.336-1.84 3.597-1.84m0 .703c-1.675.012-2.671.422-2.66 1.137-.011.703.985 1.125 2.66 1.125 1.653 0 2.661-.422 2.661-1.125 0-.715-1.008-1.125-2.661-1.137m0-6.492c-1.699 0-2.753.457-2.742 1.207-.011.762 1.043 1.207 2.742 1.207 1.688 0 2.743-.445 2.743-1.207 0-.75-1.055-1.207-2.743-1.207m-1.476 4.23h2.953V7.47a8.7 8.7 0 0 1-1.477.117 8.7 8.7 0 0 1-1.476-.117zM155.51 6.73c-.012 1.676 1.195 3.516 2.707 4.23l-.528.727c-1.171-.568-2.162-1.81-2.625-3.222-.48 1.535-1.529 2.883-2.695 3.48l-.562-.726c1.5-.727 2.789-2.707 2.8-4.489V5.371h-2.425V4.61h5.672v.762h-2.344zm4.535-3.199V7.75h1.746v.785h-1.746v5.414h-.914V3.531zm10.371 0v4.242h1.688v.774h-1.688v5.402h-.914V3.531zm-2.695 1.125c0 2.953-1.383 5.637-4.782 7.313l-.515-.727c2.695-1.342 4.16-3.346 4.371-5.812h-3.891v-.774zm14.226 3.375v.762h-2.285v2.05a41 41 0 0 0 3.012-.222l.07.691c-2.308.34-4.828.376-6.82.376l-.129-.774c.908 0 1.916-.006 2.953-.035V8.793h-2.156V4.527h5.308v.75h-4.406v2.754zm2.332-4.5v10.442h-.914V3.53zm10.184 1.055v1.043c-.012 1.277-.012 2.707-.387 4.805l-.937-.106c.398-1.992.398-3.457.398-4.7v-.28h-6.422v-.762zm1.137 7.125v.762h-9.493v-.762h3.727V7.984h.902v3.727zm12.492-8.168v5.789h-.914V3.543zm-4.91 1.406c-.012 1.442 1.113 2.742 2.66 3.246l-.446.727c-1.23-.416-2.203-1.283-2.671-2.414a4.48 4.48 0 0 1-2.696 2.601l-.468-.726c1.57-.551 2.683-1.922 2.683-3.434V3.93h.938zm4.98 5.004v.75h-1.441v2.356h1.547v.75h-7.207v-.75h1.558v-2.356h-1.465v-.75zm-4.641 3.106h2.286v-2.356h-2.286zm14.403-9.528v4.125h1.746v.774h-1.746v5.543h-.914V3.53zm-2.742 1.02v.761h-3.95v5.274c1.887 0 3.223-.088 4.77-.375l.117.797c-1.629.293-3 .351-4.98.351h-.821V4.551zm10.324-.106v.926h2.437V3.543h.926v7.605h-.926V8.371h-2.437v.938h-4.781V4.445zm-3.867.762V8.57h2.965V5.207zm7.465 7.746v.774h-6.973v-3.258h.926v2.484zm-3.598-5.344h2.437V6.145h-2.437zm6.762 2.942c.011-1.57.492-2.051 1.3-2.543.481-.293.856-.762.856-1.418 0-.797-.621-1.3-1.395-1.3-.668 0-1.336.397-1.406 1.358h-1.066c.058-1.418 1.136-2.25 2.472-2.25 1.465 0 2.426.95 2.426 2.239 0 .914-.434 1.558-1.16 2.004-.727.445-.996.89-1.02 1.91v.058h-1.007zm.539 2.52a.75.75 0 0 1-.75-.762c-.012-.41.339-.75.75-.75a.755.755 0 0 1 0 1.511"/><path stroke="#DEDEDE" d="M253 8.5h90M0 8.5h90"/></svg>