<svg xmlns="http://www.w3.org/2000/svg" fill="none" viewBox="0 0 136 34"><path fill="#DEDEDE" d="M135.025 25.999q.453 0 .696.417.279.418.279 1.149 0 1.252-.592 2.158a6.74 6.74 0 0 1-2.576 2.331q-1.566.836-3.758.836-3.341 0-5.186-1.984-1.845-2.019-1.845-5.43 0-2.4 1.01-4.454 1.008-2.09 2.784-3.307 1.81-1.218 4.072-1.218 2.019 0 3.237 1.218 1.218 1.184 1.218 3.237 0 2.401-1.74 4.142-1.706 1.705-5.847 2.714.834 1.601 2.819 1.601 1.426 0 2.332-.66.939-.663 2.157-2.228.418-.522.94-.522m-5.708-6.091q-1.287 0-2.192 1.496-.87 1.497-.871 3.62v.07q2.053-.487 3.237-1.462t1.184-2.262q0-.662-.383-1.044-.348-.418-.975-.418"/><path fill="#DEDEDE" d="M114.187 33.656q-1.809 0-2.784-.836-.94-.835-.94-1.88 0-.905.661-1.565.662-.662 1.949-.662.453 0 1.045.105l.939.104a4.3 4.3 0 0 0-.417-1.705 7.4 7.4 0 0 0-.905-1.532 19 19 0 0 0-1.044-1.322q-1.08 2.054-2.158 3.41a24 24 0 0 1-2.297 2.576q-.627.627-1.323.627-.557 0-.905-.383a1.53 1.53 0 0 1-.348-1.01q0-.696.487-1.287l.453-.557q1.914-2.367 2.889-3.898.591-1.01 1.392-2.68a102 102 0 0 0 1.566-3.515q.661-1.532 2.749-1.532.975 0 1.358.174t.383.557q0 .21-.14.661-.138.453-.382.905-.627 1.253-.627 2.123 0 .522.348 1.149.383.627 1.149 1.566 1.113 1.462 1.67 2.506.592 1.01.592 2.227 0 .349-.07.975 1.705-.661 4.003-3.515.417-.488.94-.488.452 0 .696.418.278.418.278 1.149 0 1.322-.661 2.157-1.74 2.159-3.341 2.959-1.567.765-3.898.835-1.393 1.185-3.307 1.184"/><path fill="#DEDEDE" d="M95.188 32.89q-1.566 0-2.576-1.427-.975-1.462-.974-3.62 0-2.61.348-4.768.348-2.193 1.148-4.629.348-1.044.975-1.497.626-.452 1.984-.452.765 0 1.044.244.313.244.313.73 0 .28-.383 1.88a36 36 0 0 0-.557 2.332q-.696 3.654-.696 4.872 0 .732.174 1.045.174.278.557.278.522 0 1.288-1.044.8-1.044 1.67-3.167.906-2.124 1.741-5.22.278-1.046.835-1.497.591-.453 1.74-.453.8 0 1.114.209.313.174.313.696 0 .87-.87 4.768-.975 4.455-.975 5.5 0 .66.279 1.043a.89.89 0 0 0 .731.348q.696 0 1.636-.835.974-.87 2.575-2.784.418-.488.94-.488.451 0 .696.418.278.418.278 1.149 0 1.392-.661 2.157-1.497 1.846-3.237 3.028-1.705 1.185-3.898 1.184-1.67 0-2.471-1.288-.766-1.287-.766-3.62-.591 2.367-1.775 3.655-1.182 1.253-2.54 1.253"/><path fill="#DEDEDE" d="M93.684 22.03q.453 0 .696.453.244.453.244 1.148 0 1.672-1.01 1.984-2.088.732-4.594.836-.66 2.924-2.61 4.698-1.949 1.74-4.42 1.74-2.088 0-3.585-1.009a6.46 6.46 0 0 1-2.227-2.68q-.766-1.67-.766-3.62 0-2.645 1.01-4.698 1.008-2.088 2.784-3.237a6.94 6.94 0 0 1 3.933-1.183q2.644 0 4.246 1.845 1.635 1.81 1.914 4.49 1.636-.105 3.898-.697.279-.07.487-.07M82.27 29.2q1.113 0 1.914-.905.835-.904 1.113-2.61a4.94 4.94 0 0 1-1.67-1.914 5.8 5.8 0 0 1-.557-2.506q0-.557.104-1.114H83q-1.392 0-2.331 1.358-.905 1.322-.905 3.758 0 1.915.73 2.924.766 1.01 1.776 1.01"/><path fill="#DEDEDE" d="M77.78 24.955q.454 0 .697.417.279.418.278 1.149 0 1.392-.66 2.157-1.602 1.846-3.307 3.028-1.67 1.184-3.829 1.184-1.774 0-2.68-1.01-.904-1.044-.904-2.993 0-.975.487-3.48.452-2.193.452-3.028 0-.557-.383-.557-.452 0-1.287 1.184-.836 1.148-1.671 3.062a25 25 0 0 0-1.357 4.037q-.662 2.785-3.272 2.785-1.044 0-1.392-.731-.313-.765-.313-2.715 0-1.113.034-1.775l.035-2.784q0-5.36 1.08-11.172Q60.9 7.9 63.023 3.968 65.183 0 68.175 0q1.6 0 2.576 1.392 1.008 1.357 1.009 3.55 0 3.516-2.054 7.309-2.053 3.759-6.682 8.805a65 65 0 0 0-.104 3.724q1.148-2.958 2.54-4.803 1.428-1.878 2.785-2.68 1.392-.8 2.54-.8 2.263 0 2.263 2.262 0 1.358-.766 4.908-.661 3.027-.661 4.002 0 1.392 1.009 1.392.697 0 1.636-.835.975-.87 2.575-2.784.418-.488.94-.488M67.445 3.444q-.627 0-1.392 1.81-.766 1.776-1.497 4.838a67 67 0 0 0-1.148 6.613 24.4 24.4 0 0 0 3.55-5.534q1.427-2.992 1.427-5.43 0-1.113-.244-1.705-.243-.591-.696-.591"/><path fill="#DEDEDE" d="M60.325 24.955q.452 0 .696.417.278.418.278 1.149 0 1.392-.661 2.157-1.288 1.567-3.654 2.89a10 10 0 0 1-5.012 1.322q-3.655 0-5.673-1.984t-2.019-5.43q0-2.4 1.01-4.454 1.008-2.09 2.784-3.307 1.81-1.218 4.072-1.218 2.02 0 3.236 1.218 1.22 1.184 1.219 3.237 0 2.401-1.74 4.142-1.706 1.705-5.813 2.714.87 1.601 3.307 1.601 1.566 0 3.55-1.079a11.9 11.9 0 0 0 3.48-2.888q.417-.488.94-.488m-8.77-5.047q-1.289 0-2.194 1.496-.87 1.497-.87 3.62v.07q2.054-.487 3.237-1.462t1.183-2.262q0-.662-.382-1.044-.348-.418-.975-.418"/><path fill="#DEDEDE" d="M46.66 24.955q.454 0 .697.417.279.418.278 1.149 0 1.392-.66 2.157-1.29 1.567-3.655 2.89a10 10 0 0 1-5.012 1.322q-3.654 0-5.673-1.984t-2.019-5.43q0-2.4 1.01-4.454 1.008-2.09 2.784-3.307 1.81-1.218 4.072-1.218 2.019 0 3.237 1.218 1.218 1.184 1.218 3.237 0 2.401-1.74 4.142-1.706 1.705-5.813 2.714.87 1.601 3.307 1.601 1.566 0 3.55-1.079a11.9 11.9 0 0 0 3.48-2.888q.418-.488.94-.488m-8.77-5.047q-1.288 0-2.192 1.496-.87 1.497-.87 3.62v.07q2.052-.487 3.236-1.462t1.184-2.262q0-.662-.383-1.044-.348-.418-.975-.418"/><path fill="#DEDEDE" d="M17.77 32.89q-1.323 0-1.88-1.392-.522-1.393-.522-4.455 0-4.525 1.288-8.597.313-1.01 1.01-1.462.73-.487 2.018-.487.696 0 .975.174.278.175.278.661 0 .558-.522 2.506-.348 1.392-.557 2.436t-.348 2.576q1.149-2.993 2.575-4.873 1.428-1.88 2.785-2.68 1.392-.8 2.54-.8 2.263 0 2.263 2.262 0 .453-.313 2.193-.279 1.392-.279 1.74 0 1.218.87 1.218.975 0 2.506-1.531.453-.453.94-.453.453 0 .696.418.278.383.278 1.044 0 1.289-.696 2.019a9.7 9.7 0 0 1-2.297 1.74 5.7 5.7 0 0 1-2.75.696q-1.845 0-2.818-.94-.94-.94-.94-2.54 0-.522.104-1.044.07-.697.07-.94 0-.557-.383-.557-.522 0-1.392 1.183-.836 1.149-1.67 3.063a25 25 0 0 0-1.358 4.037q-.383 1.637-.905 2.228-.488.557-1.566.557"/><path fill="#DEDEDE" d="M17.158 24.956q.453 0 .697.417.278.418.278 1.149 0 1.392-.661 2.158-1.497 1.845-3.272 3.028-1.774 1.182-4.072 1.183-7.1 0-7.1-9.989 0-1.53.104-3.097H1.775q-1.044 0-1.427-.383Q0 19.039 0 18.204q0-1.95 1.566-1.95H3.55q.591-3.828 1.81-6.995 1.218-3.167 2.923-5.047 1.74-1.88 3.724-1.879 1.462 0 2.298 1.288.835 1.287.835 3.237 0 5.394-4.525 9.397h3.898q.557 0 .8.243.244.244.244.905 0 2.402-3.933 2.402H7.378a72 72 0 0 0-.07 2.714q.001 3.62.836 5.082.87 1.461 2.715 1.462 1.497 0 2.645-.905 1.148-.906 2.715-2.715.417-.487.94-.487m-6.09-19.282q-.522 0-1.184 1.323-.626 1.287-1.218 3.62a51 51 0 0 0-.94 5.116q2.054-1.775 3.063-3.968 1.044-2.227 1.044-4.037 0-2.054-.765-2.054"/></svg>