<svg xmlns="http://www.w3.org/2000/svg" fill="none" viewBox="0 0 180 180"><path fill="#1AA873" d="M0 0h180v180H0z"/><path fill="#fff" d="M125.068 89.367q3.375 0 5.063 1.793 1.793 1.688 1.793 5.063 0 2.742-1.16 10.336a230 230 0 0 0-1.688 12.234q-.633 5.695-.633 12.762 0 4.008-1.687 5.8-1.583 1.688-5.274 1.688-3.48 0-5.062-1.793t-1.582-5.379q0-4.218 1.476-13.922 1.266-8.438 1.266-10.758 0-1.687-1.16-1.687-1.371 0-3.902 3.586-2.531 3.48-5.063 9.281a76 76 0 0 0-4.113 12.234q-1.161 4.958-2.742 6.75-1.478 1.688-4.746 1.688-3.27 0-4.852-2.32-1.476-2.426-2.004-7.383t-.527-14.555q0-16.242 3.27-33.855 3.375-17.614 9.808-29.532 6.538-12.023 15.609-12.023 4.852 0 7.805 4.219 3.058 4.113 3.058 10.758 0 10.652-6.222 22.148-6.223 11.39-20.25 26.684a196 196 0 0 0-.317 11.285q3.481-8.965 7.7-14.555 4.324-5.695 8.437-8.121 4.22-2.426 7.699-2.426m-10.125-39.55q-1.898 0-4.218 5.484-2.32 5.378-4.536 14.66-2.109 9.176-3.48 20.039a74 74 0 0 0 10.758-16.77q4.324-9.069 4.324-16.453 0-3.374-.738-5.168-.738-1.793-2.11-1.793"/><path fill="#fff" d="M93.367 114.996q1.37 0 2.11 1.266.843 1.265.843 3.48 0 4.219-2.004 6.539-4.535 5.59-9.914 9.176t-12.34 3.586q-21.515 0-21.515-30.27 0-4.64.316-9.386H46.75q-3.164 0-4.324-1.16-1.055-1.16-1.055-3.692 0-5.906 4.746-5.906h6.012q1.793-11.601 5.484-21.2 3.691-9.597 8.86-15.292 5.273-5.696 11.285-5.696 4.43 0 6.96 3.903 2.532 3.901 2.532 9.808 0 16.348-13.71 28.477h11.81q1.688 0 2.426.738t.739 2.742q0 7.278-11.918 7.278H63.73q-.212 5.273-.212 8.226 0 10.97 2.532 15.399 2.637 4.43 8.226 4.429 4.536 0 8.016-2.742t8.226-8.226q1.266-1.477 2.848-1.477M74.91 56.566q-1.582 0-3.586 4.008-1.898 3.903-3.691 10.969-1.687 6.96-2.848 15.504 6.223-5.379 9.281-12.024 3.165-6.75 3.165-12.234 0-6.223-2.32-6.223"/></svg>