<svg width="1384" height="769" viewBox="0 0 1384 769" fill="none" xmlns="http://www.w3.org/2000/svg">
<rect width="1384" height="769" fill="black"/>
<path d="M774.523 474V444.909H784.693C786.72 444.909 788.391 445.259 789.707 445.96C791.024 446.652 792.004 447.584 792.648 448.759C793.292 449.923 793.614 451.216 793.614 452.636C793.614 453.886 793.391 454.919 792.946 455.733C792.51 456.547 791.933 457.191 791.213 457.665C790.503 458.138 789.731 458.489 788.898 458.716V459C789.788 459.057 790.683 459.369 791.582 459.938C792.482 460.506 793.235 461.32 793.841 462.381C794.447 463.441 794.75 464.739 794.75 466.273C794.75 467.731 794.419 469.043 793.756 470.207C793.093 471.372 792.046 472.295 790.616 472.977C789.187 473.659 787.326 474 785.034 474H774.523ZM778.045 470.875H785.034C787.335 470.875 788.969 470.43 789.935 469.54C790.91 468.64 791.398 467.551 791.398 466.273C791.398 465.288 791.147 464.379 790.645 463.545C790.143 462.703 789.428 462.03 788.5 461.528C787.572 461.017 786.473 460.761 785.205 460.761H778.045V470.875ZM778.045 457.693H784.58C785.64 457.693 786.597 457.485 787.449 457.068C788.311 456.652 788.992 456.064 789.494 455.307C790.006 454.549 790.261 453.659 790.261 452.636C790.261 451.358 789.816 450.274 788.926 449.384C788.036 448.484 786.625 448.034 784.693 448.034H778.045V457.693ZM809.232 474.455C807.129 474.455 805.316 473.991 803.791 473.062C802.276 472.125 801.107 470.818 800.283 469.142C799.468 467.456 799.061 465.496 799.061 463.261C799.061 461.027 799.468 459.057 800.283 457.352C801.107 455.638 802.252 454.303 803.72 453.347C805.197 452.381 806.921 451.898 808.891 451.898C810.027 451.898 811.149 452.087 812.257 452.466C813.365 452.845 814.374 453.46 815.283 454.312C816.192 455.155 816.916 456.273 817.456 457.665C817.996 459.057 818.266 460.771 818.266 462.807V464.227H801.447V461.33H814.857C814.857 460.098 814.61 459 814.118 458.034C813.635 457.068 812.944 456.306 812.044 455.747C811.154 455.188 810.103 454.909 808.891 454.909C807.555 454.909 806.4 455.241 805.425 455.903C804.459 456.557 803.715 457.409 803.195 458.46C802.674 459.511 802.413 460.638 802.413 461.841V463.773C802.413 465.42 802.697 466.817 803.266 467.963C803.843 469.099 804.643 469.966 805.666 470.562C806.689 471.15 807.877 471.443 809.232 471.443C810.112 471.443 810.908 471.32 811.618 471.074C812.338 470.818 812.958 470.439 813.479 469.938C814 469.426 814.402 468.792 814.686 468.034L817.925 468.943C817.584 470.042 817.011 471.008 816.206 471.841C815.401 472.665 814.407 473.309 813.223 473.773C812.039 474.227 810.709 474.455 809.232 474.455ZM833.962 474V452.182H839.828V455.989H840.055C840.453 454.634 841.121 453.612 842.058 452.92C842.996 452.22 844.075 451.869 845.297 451.869C845.6 451.869 845.927 451.888 846.277 451.926C846.627 451.964 846.935 452.016 847.2 452.082V457.452C846.916 457.366 846.523 457.291 846.021 457.224C845.519 457.158 845.06 457.125 844.643 457.125C843.753 457.125 842.958 457.319 842.257 457.707C841.566 458.086 841.017 458.616 840.609 459.298C840.212 459.98 840.013 460.766 840.013 461.656V474H833.962ZM859.171 474.426C856.965 474.426 855.057 473.957 853.447 473.02C851.846 472.073 850.611 470.757 849.739 469.071C848.868 467.376 848.433 465.411 848.433 463.176C848.433 460.922 848.868 458.953 849.739 457.267C850.611 455.572 851.846 454.256 853.447 453.318C855.057 452.371 856.965 451.898 859.171 451.898C861.378 451.898 863.281 452.371 864.881 453.318C866.491 454.256 867.732 455.572 868.603 457.267C869.474 458.953 869.91 460.922 869.91 463.176C869.91 465.411 869.474 467.376 868.603 469.071C867.732 470.757 866.491 472.073 864.881 473.02C863.281 473.957 861.378 474.426 859.171 474.426ZM859.2 469.739C860.203 469.739 861.041 469.455 861.714 468.886C862.386 468.309 862.893 467.523 863.234 466.528C863.584 465.534 863.759 464.402 863.759 463.134C863.759 461.865 863.584 460.733 863.234 459.739C862.893 458.744 862.386 457.958 861.714 457.381C861.041 456.803 860.203 456.514 859.2 456.514C858.186 456.514 857.334 456.803 856.643 457.381C855.961 457.958 855.445 458.744 855.094 459.739C854.754 460.733 854.583 461.865 854.583 463.134C854.583 464.402 854.754 465.534 855.094 466.528C855.445 467.523 855.961 468.309 856.643 468.886C857.334 469.455 858.186 469.739 859.2 469.739ZM883.702 474.426C881.496 474.426 879.588 473.957 877.978 473.02C876.378 472.073 875.142 470.757 874.271 469.071C873.399 467.376 872.964 465.411 872.964 463.176C872.964 460.922 873.399 458.953 874.271 457.267C875.142 455.572 876.378 454.256 877.978 453.318C879.588 452.371 881.496 451.898 883.702 451.898C885.909 451.898 887.812 452.371 889.413 453.318C891.022 454.256 892.263 455.572 893.134 457.267C894.005 458.953 894.441 460.922 894.441 463.176C894.441 465.411 894.005 467.376 893.134 469.071C892.263 470.757 891.022 472.073 889.413 473.02C887.812 473.957 885.909 474.426 883.702 474.426ZM883.731 469.739C884.735 469.739 885.573 469.455 886.245 468.886C886.917 468.309 887.424 467.523 887.765 466.528C888.115 465.534 888.29 464.402 888.29 463.134C888.29 461.865 888.115 460.733 887.765 459.739C887.424 458.744 886.917 457.958 886.245 457.381C885.573 456.803 884.735 456.514 883.731 456.514C882.718 456.514 881.865 456.803 881.174 457.381C880.492 457.958 879.976 458.744 879.626 459.739C879.285 460.733 879.114 461.865 879.114 463.134C879.114 464.402 879.285 465.534 879.626 466.528C879.976 467.523 880.492 468.309 881.174 468.886C881.865 469.455 882.718 469.739 883.731 469.739ZM909.981 452.182V456.727H896.842V452.182H909.981ZM899.825 446.955H905.876V467.295C905.876 467.854 905.961 468.29 906.131 468.602C906.302 468.905 906.539 469.118 906.842 469.241C907.154 469.365 907.514 469.426 907.921 469.426C908.205 469.426 908.489 469.402 908.773 469.355C909.058 469.298 909.275 469.256 909.427 469.227L910.379 473.73C910.076 473.825 909.649 473.934 909.1 474.057C908.551 474.189 907.883 474.27 907.097 474.298C905.639 474.355 904.361 474.161 903.262 473.716C902.173 473.271 901.326 472.58 900.719 471.642C900.113 470.705 899.815 469.521 899.825 468.091V446.955ZM919.576 470.023L919.349 471.557C919.188 472.636 918.942 473.792 918.61 475.023C918.288 476.254 917.952 477.414 917.602 478.503C917.251 479.592 916.962 480.458 916.735 481.102H914.178C914.301 480.496 914.462 479.696 914.661 478.702C914.86 477.707 915.059 476.595 915.258 475.364C915.466 474.142 915.637 472.892 915.769 471.614L915.94 470.023H919.576ZM774.523 522V492.909H784.693C786.72 492.909 788.391 493.259 789.707 493.96C791.024 494.652 792.004 495.584 792.648 496.759C793.292 497.923 793.614 499.216 793.614 500.636C793.614 501.886 793.391 502.919 792.946 503.733C792.51 504.547 791.933 505.191 791.213 505.665C790.503 506.138 789.731 506.489 788.898 506.716V507C789.788 507.057 790.683 507.369 791.582 507.938C792.482 508.506 793.235 509.32 793.841 510.381C794.447 511.441 794.75 512.739 794.75 514.273C794.75 515.731 794.419 517.043 793.756 518.207C793.093 519.372 792.046 520.295 790.616 520.977C789.187 521.659 787.326 522 785.034 522H774.523ZM778.045 518.875H785.034C787.335 518.875 788.969 518.43 789.935 517.54C790.91 516.64 791.398 515.551 791.398 514.273C791.398 513.288 791.147 512.379 790.645 511.545C790.143 510.703 789.428 510.03 788.5 509.528C787.572 509.017 786.473 508.761 785.205 508.761H778.045V518.875ZM778.045 505.693H784.58C785.64 505.693 786.597 505.485 787.449 505.068C788.311 504.652 788.992 504.064 789.494 503.307C790.006 502.549 790.261 501.659 790.261 500.636C790.261 499.358 789.816 498.274 788.926 497.384C788.036 496.484 786.625 496.034 784.693 496.034H778.045V505.693ZM809.232 522.455C807.129 522.455 805.316 521.991 803.791 521.062C802.276 520.125 801.107 518.818 800.283 517.142C799.468 515.456 799.061 513.496 799.061 511.261C799.061 509.027 799.468 507.057 800.283 505.352C801.107 503.638 802.252 502.303 803.72 501.347C805.197 500.381 806.921 499.898 808.891 499.898C810.027 499.898 811.149 500.087 812.257 500.466C813.365 500.845 814.374 501.46 815.283 502.312C816.192 503.155 816.916 504.273 817.456 505.665C817.996 507.057 818.266 508.771 818.266 510.807V512.227H801.447V509.33H814.857C814.857 508.098 814.61 507 814.118 506.034C813.635 505.068 812.944 504.306 812.044 503.747C811.154 503.188 810.103 502.909 808.891 502.909C807.555 502.909 806.4 503.241 805.425 503.903C804.459 504.557 803.715 505.409 803.195 506.46C802.674 507.511 802.413 508.638 802.413 509.841V511.773C802.413 513.42 802.697 514.817 803.266 515.963C803.843 517.099 804.643 517.966 805.666 518.562C806.689 519.15 807.877 519.443 809.232 519.443C810.112 519.443 810.908 519.32 811.618 519.074C812.338 518.818 812.958 518.439 813.479 517.938C814 517.426 814.402 516.792 814.686 516.034L817.925 516.943C817.584 518.042 817.011 519.008 816.206 519.841C815.401 520.665 814.407 521.309 813.223 521.773C812.039 522.227 810.709 522.455 809.232 522.455ZM843.82 522.426C841.585 522.426 839.662 521.953 838.053 521.006C836.452 520.049 835.221 518.723 834.359 517.028C833.507 515.333 833.081 513.383 833.081 511.176C833.081 508.941 833.512 506.981 834.374 505.295C835.245 503.6 836.481 502.279 838.081 501.332C839.681 500.376 841.585 499.898 843.791 499.898C845.695 499.898 847.361 500.243 848.791 500.935C850.221 501.626 851.353 502.597 852.186 503.847C853.019 505.097 853.479 506.564 853.564 508.25H847.854C847.693 507.161 847.267 506.285 846.575 505.622C845.893 504.95 844.999 504.614 843.891 504.614C842.953 504.614 842.134 504.869 841.433 505.381C840.742 505.883 840.202 506.616 839.814 507.582C839.426 508.548 839.232 509.718 839.232 511.091C839.232 512.483 839.421 513.667 839.8 514.642C840.188 515.617 840.732 516.361 841.433 516.872C842.134 517.384 842.953 517.639 843.891 517.639C844.582 517.639 845.202 517.497 845.751 517.213C846.31 516.929 846.769 516.517 847.129 515.977C847.499 515.428 847.74 514.77 847.854 514.003H853.564C853.469 515.67 853.015 517.137 852.2 518.406C851.395 519.666 850.283 520.651 848.862 521.361C847.442 522.071 845.761 522.426 843.82 522.426ZM867.296 522.426C865.09 522.426 863.182 521.957 861.572 521.02C859.971 520.073 858.736 518.757 857.864 517.071C856.993 515.376 856.558 513.411 856.558 511.176C856.558 508.922 856.993 506.953 857.864 505.267C858.736 503.572 859.971 502.256 861.572 501.318C863.182 500.371 865.09 499.898 867.296 499.898C869.503 499.898 871.406 500.371 873.006 501.318C874.616 502.256 875.857 503.572 876.728 505.267C877.599 506.953 878.035 508.922 878.035 511.176C878.035 513.411 877.599 515.376 876.728 517.071C875.857 518.757 874.616 520.073 873.006 521.02C871.406 521.957 869.503 522.426 867.296 522.426ZM867.325 517.739C868.328 517.739 869.166 517.455 869.839 516.886C870.511 516.309 871.018 515.523 871.359 514.528C871.709 513.534 871.884 512.402 871.884 511.134C871.884 509.865 871.709 508.733 871.359 507.739C871.018 506.744 870.511 505.958 869.839 505.381C869.166 504.803 868.328 504.514 867.325 504.514C866.311 504.514 865.459 504.803 864.768 505.381C864.086 505.958 863.57 506.744 863.219 507.739C862.879 508.733 862.708 509.865 862.708 511.134C862.708 512.402 862.879 513.534 863.219 514.528C863.57 515.523 864.086 516.309 864.768 516.886C865.459 517.455 866.311 517.739 867.325 517.739ZM888.021 509.386V522H881.969V500.182H887.737V504.031H887.992C888.475 502.762 889.285 501.759 890.421 501.02C891.558 500.272 892.935 499.898 894.555 499.898C896.07 499.898 897.391 500.229 898.518 500.892C899.645 501.555 900.521 502.502 901.146 503.733C901.771 504.955 902.083 506.413 902.083 508.108V522H896.032V509.188C896.041 507.852 895.701 506.811 895.009 506.062C894.318 505.305 893.366 504.926 892.154 504.926C891.34 504.926 890.62 505.101 889.995 505.452C889.379 505.802 888.897 506.313 888.546 506.986C888.205 507.649 888.03 508.449 888.021 509.386ZM912.903 509.386V522H906.852V500.182H912.619V504.031H912.875C913.358 502.762 914.168 501.759 915.304 501.02C916.44 500.272 917.818 499.898 919.438 499.898C920.953 499.898 922.274 500.229 923.401 500.892C924.527 501.555 925.403 502.502 926.028 503.733C926.653 504.955 926.966 506.413 926.966 508.108V522H920.915V509.188C920.924 507.852 920.583 506.811 919.892 506.062C919.201 505.305 918.249 504.926 917.037 504.926C916.223 504.926 915.503 505.101 914.878 505.452C914.262 505.802 913.779 506.313 913.429 506.986C913.088 507.649 912.913 508.449 912.903 509.386ZM941.678 522.426C939.434 522.426 937.502 521.972 935.883 521.062C934.273 520.144 933.032 518.847 932.161 517.17C931.29 515.485 930.854 513.491 930.854 511.19C930.854 508.946 931.29 506.976 932.161 505.281C933.032 503.586 934.259 502.265 935.84 501.318C937.431 500.371 939.297 499.898 941.437 499.898C942.876 499.898 944.216 500.13 945.457 500.594C946.707 501.048 947.796 501.735 948.724 502.653C949.661 503.572 950.39 504.727 950.911 506.119C951.432 507.502 951.692 509.121 951.692 510.977V512.639H933.269V508.889H945.996C945.996 508.018 945.807 507.246 945.428 506.574C945.049 505.902 944.524 505.376 943.852 504.997C943.189 504.609 942.417 504.415 941.536 504.415C940.618 504.415 939.803 504.628 939.093 505.054C938.392 505.471 937.843 506.034 937.445 506.744C937.048 507.445 936.844 508.226 936.835 509.088V512.653C936.835 513.733 937.033 514.666 937.431 515.452C937.838 516.238 938.411 516.844 939.15 517.27C939.888 517.696 940.764 517.909 941.778 517.909C942.45 517.909 943.066 517.814 943.624 517.625C944.183 517.436 944.661 517.152 945.059 516.773C945.457 516.394 945.76 515.93 945.968 515.381L951.565 515.75C951.281 517.095 950.698 518.269 949.817 519.273C948.946 520.267 947.819 521.044 946.437 521.602C945.064 522.152 943.478 522.426 941.678 522.426ZM965.499 522.426C963.264 522.426 961.342 521.953 959.732 521.006C958.132 520.049 956.901 518.723 956.039 517.028C955.187 515.333 954.761 513.383 954.761 511.176C954.761 508.941 955.192 506.981 956.053 505.295C956.924 503.6 958.16 502.279 959.761 501.332C961.361 500.376 963.264 499.898 965.471 499.898C967.374 499.898 969.041 500.243 970.471 500.935C971.901 501.626 973.032 502.597 973.866 503.847C974.699 505.097 975.158 506.564 975.244 508.25H969.533C969.372 507.161 968.946 506.285 968.255 505.622C967.573 504.95 966.678 504.614 965.57 504.614C964.633 504.614 963.814 504.869 963.113 505.381C962.422 505.883 961.882 506.616 961.494 507.582C961.105 508.548 960.911 509.718 960.911 511.091C960.911 512.483 961.101 513.667 961.479 514.642C961.868 515.617 962.412 516.361 963.113 516.872C963.814 517.384 964.633 517.639 965.57 517.639C966.262 517.639 966.882 517.497 967.431 517.213C967.99 516.929 968.449 516.517 968.809 515.977C969.178 515.428 969.42 514.77 969.533 514.003H975.244C975.149 515.67 974.694 517.137 973.88 518.406C973.075 519.666 971.962 520.651 970.542 521.361C969.121 522.071 967.441 522.426 965.499 522.426ZM990.723 500.182V504.727H977.584V500.182H990.723ZM980.567 494.955H986.618V515.295C986.618 515.854 986.703 516.29 986.874 516.602C987.044 516.905 987.281 517.118 987.584 517.241C987.896 517.365 988.256 517.426 988.663 517.426C988.947 517.426 989.232 517.402 989.516 517.355C989.8 517.298 990.018 517.256 990.169 517.227L991.121 521.73C990.818 521.825 990.392 521.934 989.842 522.057C989.293 522.189 988.625 522.27 987.839 522.298C986.381 522.355 985.103 522.161 984.004 521.716C982.915 521.271 982.068 520.58 981.462 519.642C980.856 518.705 980.557 517.521 980.567 516.091V494.955ZM1004.37 522.426C1002.13 522.426 1000.2 521.972 998.578 521.062C996.968 520.144 995.728 518.847 994.857 517.17C993.985 515.485 993.55 513.491 993.55 511.19C993.55 508.946 993.985 506.976 994.857 505.281C995.728 503.586 996.954 502.265 998.536 501.318C1000.13 500.371 1001.99 499.898 1004.13 499.898C1005.57 499.898 1006.91 500.13 1008.15 500.594C1009.4 501.048 1010.49 501.735 1011.42 502.653C1012.36 503.572 1013.09 504.727 1013.61 506.119C1014.13 507.502 1014.39 509.121 1014.39 510.977V512.639H995.964V508.889H1008.69C1008.69 508.018 1008.5 507.246 1008.12 506.574C1007.74 505.902 1007.22 505.376 1006.55 504.997C1005.88 504.609 1005.11 504.415 1004.23 504.415C1003.31 504.415 1002.5 504.628 1001.79 505.054C1001.09 505.471 1000.54 506.034 1000.14 506.744C999.743 507.445 999.539 508.226 999.53 509.088V512.653C999.53 513.733 999.729 514.666 1000.13 515.452C1000.53 516.238 1001.11 516.844 1001.85 517.27C1002.58 517.696 1003.46 517.909 1004.47 517.909C1005.15 517.909 1005.76 517.814 1006.32 517.625C1006.88 517.436 1007.36 517.152 1007.75 516.773C1008.15 516.394 1008.46 515.93 1008.66 515.381L1014.26 515.75C1013.98 517.095 1013.39 518.269 1012.51 519.273C1011.64 520.267 1010.51 521.044 1009.13 521.602C1007.76 522.152 1006.17 522.426 1004.37 522.426ZM1026.38 522.355C1024.72 522.355 1023.22 521.929 1021.87 521.077C1020.54 520.215 1019.48 518.951 1018.69 517.284C1017.92 515.608 1017.53 513.553 1017.53 511.119C1017.53 508.619 1017.93 506.541 1018.73 504.884C1019.54 503.217 1020.61 501.972 1021.94 501.148C1023.29 500.314 1024.76 499.898 1026.36 499.898C1027.58 499.898 1028.6 500.106 1029.42 500.523C1030.24 500.93 1030.9 501.441 1031.4 502.057C1031.92 502.663 1032.3 503.259 1032.57 503.847H1032.75V492.909H1038.79V522H1032.83V518.506H1032.57C1032.29 519.112 1031.88 519.713 1031.36 520.31C1030.85 520.897 1030.18 521.384 1029.36 521.773C1028.54 522.161 1027.55 522.355 1026.38 522.355ZM1028.29 517.54C1029.27 517.54 1030.09 517.275 1030.77 516.744C1031.45 516.205 1031.97 515.452 1032.33 514.486C1032.7 513.52 1032.88 512.388 1032.88 511.091C1032.88 509.794 1032.7 508.667 1032.34 507.71C1031.98 506.754 1031.46 506.015 1030.78 505.494C1030.1 504.973 1029.27 504.713 1028.29 504.713C1027.3 504.713 1026.46 504.983 1025.78 505.523C1025.1 506.062 1024.58 506.811 1024.23 507.767C1023.88 508.723 1023.71 509.831 1023.71 511.091C1023.71 512.36 1023.88 513.482 1024.23 514.457C1024.59 515.423 1025.11 516.181 1025.78 516.73C1026.46 517.27 1027.3 517.54 1028.29 517.54Z" fill="white"/>
<path d="M830.28 369.24C831.32 369.24 832.12 369.72 832.68 370.68C833.32 371.64 833.64 372.96 833.64 374.64C833.64 377.84 832.88 380.32 831.36 382.08C827.92 386.32 824.16 389.8 820.08 392.52C816 395.24 811.32 396.6 806.04 396.6C789.72 396.6 781.56 385.12 781.56 362.16C781.56 358.64 781.68 355.08 781.92 351.48H777.24C774.84 351.48 773.2 351.04 772.32 350.16C771.52 349.28 771.12 347.88 771.12 345.96C771.12 341.48 772.92 339.24 776.52 339.24H783.36C784.72 330.44 786.8 322.4 789.6 315.12C792.4 307.84 795.76 302.04 799.68 297.72C803.68 293.4 807.96 291.24 812.52 291.24C815.88 291.24 818.52 292.72 820.44 295.68C822.36 298.64 823.32 302.36 823.32 306.84C823.32 319.24 818.12 330.04 807.72 339.24H821.16C822.44 339.24 823.36 339.52 823.92 340.08C824.48 340.64 824.76 341.68 824.76 343.2C824.76 348.72 820.24 351.48 811.2 351.48H796.56C796.4 355.48 796.32 358.6 796.32 360.84C796.32 369.16 797.28 375 799.2 378.36C801.2 381.72 804.32 383.4 808.56 383.4C812 383.4 815.04 382.36 817.68 380.28C820.32 378.2 823.44 375.08 827.04 370.92C828 369.8 829.08 369.24 830.28 369.24ZM809.28 302.76C808.08 302.76 806.72 304.28 805.2 307.32C803.76 310.28 802.36 314.44 801 319.8C799.72 325.08 798.64 330.96 797.76 337.44C802.48 333.36 806 328.8 808.32 323.76C810.72 318.64 811.92 314 811.92 309.84C811.92 305.12 811.04 302.76 809.28 302.76ZM832.389 396.6C829.349 396.6 827.189 395 825.909 391.8C824.709 388.6 824.109 383.48 824.109 376.44C824.109 366.04 825.589 356.16 828.549 346.8C829.269 344.48 830.429 342.8 832.029 341.76C833.709 340.64 836.029 340.08 838.989 340.08C840.589 340.08 841.709 340.28 842.349 340.68C842.989 341.08 843.309 341.84 843.309 342.96C843.309 344.24 842.709 347.12 841.509 351.6C840.709 354.8 840.069 357.6 839.589 360C839.109 362.4 838.709 365.36 838.389 368.88C841.029 362 843.989 356.4 847.269 352.08C850.549 347.76 853.749 344.68 856.869 342.84C860.069 341 862.989 340.08 865.629 340.08C870.829 340.08 873.429 342.68 873.429 347.88C873.429 348.92 873.069 351.44 872.349 355.44C871.709 358.64 871.389 360.64 871.389 361.44C871.389 364.24 872.389 365.64 874.389 365.64C876.629 365.64 879.509 363.88 883.029 360.36C884.069 359.32 885.149 358.8 886.269 358.8C887.309 358.8 888.109 359.28 888.669 360.24C889.309 361.12 889.629 362.32 889.629 363.84C889.629 366.8 888.829 369.12 887.229 370.8C884.989 373.12 882.349 375.12 879.309 376.8C876.349 378.4 873.189 379.2 869.829 379.2C865.589 379.2 862.349 378.12 860.109 375.96C857.949 373.8 856.869 370.88 856.869 367.2C856.869 366 856.989 364.8 857.229 363.6C857.389 362 857.469 360.92 857.469 360.36C857.469 359.08 857.029 358.44 856.149 358.44C854.949 358.44 853.349 359.8 851.349 362.52C849.429 365.16 847.509 368.68 845.589 373.08C843.669 377.48 842.109 382.12 840.909 387C840.029 390.76 838.989 393.32 837.789 394.68C836.669 395.96 834.869 396.6 832.389 396.6ZM931.999 369.24C933.039 369.24 933.839 369.72 934.399 370.68C935.039 371.64 935.359 372.96 935.359 374.64C935.359 377.84 934.599 380.32 933.079 382.08C930.119 385.68 925.919 389 920.479 392.04C915.119 395.08 909.359 396.6 903.199 396.6C894.799 396.6 888.279 394.32 883.639 389.76C878.999 385.2 876.679 378.96 876.679 371.04C876.679 365.52 877.839 360.4 880.159 355.68C882.479 350.88 885.679 347.08 889.759 344.28C893.919 341.48 898.599 340.08 903.799 340.08C908.439 340.08 912.159 341.48 914.959 344.28C917.759 347 919.159 350.72 919.159 355.44C919.159 360.96 917.159 365.72 913.159 369.72C909.239 373.64 902.559 376.76 893.119 379.08C895.119 382.76 898.919 384.6 904.519 384.6C908.119 384.6 912.199 383.36 916.759 380.88C921.399 378.32 925.399 375 928.759 370.92C929.719 369.8 930.799 369.24 931.999 369.24ZM901.759 351.84C898.799 351.84 896.279 353.56 894.199 357C892.199 360.44 891.199 364.6 891.199 369.48V369.72C895.919 368.6 899.639 366.92 902.359 364.68C905.079 362.44 906.439 359.84 906.439 356.88C906.439 355.36 905.999 354.16 905.119 353.28C904.319 352.32 903.199 351.84 901.759 351.84ZM979.108 369.24C980.148 369.24 980.948 369.72 981.508 370.68C982.148 371.64 982.468 372.96 982.468 374.64C982.468 377.84 981.708 380.32 980.188 382.08C977.228 385.68 973.028 389 967.588 392.04C962.228 395.08 956.468 396.6 950.308 396.6C941.908 396.6 935.388 394.32 930.748 389.76C926.108 385.2 923.788 378.96 923.788 371.04C923.788 365.52 924.948 360.4 927.268 355.68C929.588 350.88 932.788 347.08 936.868 344.28C941.028 341.48 945.708 340.08 950.908 340.08C955.548 340.08 959.268 341.48 962.068 344.28C964.868 347 966.268 350.72 966.268 355.44C966.268 360.96 964.268 365.72 960.268 369.72C956.348 373.64 949.668 376.76 940.228 379.08C942.228 382.76 946.028 384.6 951.628 384.6C955.228 384.6 959.308 383.36 963.868 380.88C968.508 378.32 972.508 375 975.868 370.92C976.828 369.8 977.908 369.24 979.108 369.24ZM948.868 351.84C945.908 351.84 943.388 353.56 941.308 357C939.308 360.44 938.308 364.6 938.308 369.48V369.72C943.028 368.6 946.748 366.92 949.468 364.68C952.188 362.44 953.548 359.84 953.548 356.88C953.548 355.36 953.108 354.16 952.228 353.28C951.428 352.32 950.308 351.84 948.868 351.84ZM1039.3 369.24C1040.34 369.24 1041.14 369.72 1041.7 370.68C1042.34 371.64 1042.66 372.96 1042.66 374.64C1042.66 377.84 1041.9 380.32 1040.38 382.08C1036.7 386.32 1032.9 389.8 1028.98 392.52C1025.14 395.24 1020.74 396.6 1015.78 396.6C1011.7 396.6 1008.62 395.44 1006.54 393.12C1004.46 390.72 1003.42 387.28 1003.42 382.8C1003.42 380.56 1003.98 376.56 1005.1 370.8C1006.14 365.76 1006.66 362.28 1006.66 360.36C1006.66 359.08 1006.22 358.44 1005.34 358.44C1004.3 358.44 1002.82 359.8 1000.9 362.52C998.978 365.16 997.058 368.68 995.138 373.08C993.218 377.48 991.658 382.12 990.458 387C988.938 393.4 985.178 396.6 979.178 396.6C976.778 396.6 975.178 395.76 974.378 394.08C973.658 392.32 973.298 389.2 973.298 384.72C973.298 382.16 973.338 380.12 973.418 378.6L973.538 369C973.538 356.68 974.778 343.84 977.258 330.48C979.818 317.12 983.538 305.92 988.418 296.88C993.378 287.76 999.298 283.2 1006.18 283.2C1009.86 283.2 1012.82 284.8 1015.06 288C1017.38 291.12 1018.54 295.2 1018.54 300.24C1018.54 308.32 1016.18 316.72 1011.46 325.44C1006.74 334.08 999.058 344.2 988.418 355.8C988.178 359.96 988.058 364.24 988.058 368.64C990.698 361.84 993.618 356.32 996.818 352.08C1000.1 347.76 1003.3 344.68 1006.42 342.84C1009.62 341 1012.54 340.08 1015.18 340.08C1020.38 340.08 1022.98 342.68 1022.98 347.88C1022.98 351 1022.1 356.64 1020.34 364.8C1018.82 371.76 1018.06 376.36 1018.06 378.6C1018.06 381.8 1019.22 383.4 1021.54 383.4C1023.14 383.4 1025.02 382.44 1027.18 380.52C1029.42 378.52 1032.38 375.32 1036.06 370.92C1037.02 369.8 1038.1 369.24 1039.3 369.24ZM1003.66 295.08C1002.22 295.08 1000.62 297.16 998.858 301.32C997.098 305.4 995.378 310.96 993.698 318C992.098 324.96 990.778 332.56 989.738 340.8C994.698 334.96 998.778 328.6 1001.98 321.72C1005.26 314.84 1006.9 308.6 1006.9 303C1006.9 300.44 1006.62 298.48 1006.06 297.12C1005.5 295.76 1004.7 295.08 1003.66 295.08ZM1094.13 359.16C1095.17 359.16 1095.97 359.68 1096.53 360.72C1097.09 361.76 1097.37 363.08 1097.37 364.68C1097.37 368.52 1096.21 370.8 1093.89 371.52C1089.09 373.2 1083.81 374.16 1078.05 374.4C1076.53 381.12 1073.53 386.52 1069.05 390.6C1064.57 394.6 1059.49 396.6 1053.81 396.6C1049.01 396.6 1044.89 395.44 1041.45 393.12C1038.09 390.8 1035.53 387.72 1033.77 383.88C1032.01 380.04 1031.13 375.88 1031.13 371.4C1031.13 365.32 1032.29 359.92 1034.61 355.2C1036.93 350.4 1040.13 346.68 1044.21 344.04C1048.29 341.32 1052.81 339.96 1057.77 339.96C1063.85 339.96 1068.73 342.08 1072.41 346.32C1076.17 350.48 1078.37 355.64 1079.01 361.8C1082.77 361.56 1087.25 360.76 1092.45 359.4C1093.09 359.24 1093.65 359.16 1094.13 359.16ZM1054.77 383.88C1057.33 383.88 1059.53 382.84 1061.37 380.76C1063.29 378.68 1064.57 375.68 1065.21 371.76C1062.73 370.08 1060.81 367.88 1059.45 365.16C1058.17 362.44 1057.53 359.56 1057.53 356.52C1057.53 355.24 1057.65 353.96 1057.89 352.68H1057.29C1054.09 352.68 1051.41 354.24 1049.25 357.36C1047.17 360.4 1046.13 364.72 1046.13 370.32C1046.13 374.72 1046.97 378.08 1048.65 380.4C1050.41 382.72 1052.45 383.88 1054.77 383.88ZM1099.31 396.6C1095.71 396.6 1092.75 394.96 1090.43 391.68C1088.19 388.32 1087.07 384.16 1087.07 379.2C1087.07 373.2 1087.47 367.72 1088.27 362.76C1089.07 357.72 1090.39 352.4 1092.23 346.8C1093.03 344.4 1094.15 342.68 1095.59 341.64C1097.03 340.6 1099.31 340.08 1102.43 340.08C1104.19 340.08 1105.39 340.36 1106.03 340.92C1106.75 341.48 1107.11 342.32 1107.11 343.44C1107.11 344.08 1106.67 346.24 1105.79 349.92C1104.99 352.88 1104.35 355.56 1103.87 357.96C1102.27 366.36 1101.47 371.96 1101.47 374.76C1101.47 376.44 1101.67 377.64 1102.07 378.36C1102.47 379 1103.11 379.32 1103.99 379.32C1105.19 379.32 1106.67 378.12 1108.43 375.72C1110.27 373.32 1112.19 369.68 1114.19 364.8C1116.27 359.92 1118.27 353.92 1120.19 346.8C1120.83 344.4 1121.79 342.68 1123.07 341.64C1124.43 340.6 1126.43 340.08 1129.07 340.08C1130.91 340.08 1132.19 340.32 1132.91 340.8C1133.63 341.2 1133.99 342 1133.99 343.2C1133.99 345.2 1132.99 350.68 1130.99 359.64C1128.75 369.88 1127.63 376.2 1127.63 378.6C1127.63 380.12 1127.95 381.32 1128.59 382.2C1129.23 383 1130.07 383.4 1131.11 383.4C1132.71 383.4 1134.59 382.44 1136.75 380.52C1138.99 378.52 1141.95 375.32 1145.63 370.92C1146.59 369.8 1147.67 369.24 1148.87 369.24C1149.91 369.24 1150.71 369.72 1151.27 370.68C1151.91 371.64 1152.23 372.96 1152.23 374.64C1152.23 377.84 1151.47 380.32 1149.95 382.08C1146.51 386.32 1142.79 389.8 1138.79 392.52C1134.87 395.24 1130.39 396.6 1125.35 396.6C1121.51 396.6 1118.67 395.12 1116.83 392.16C1115.07 389.2 1114.19 385.04 1114.19 379.68C1112.83 385.12 1110.79 389.32 1108.07 392.28C1105.35 395.16 1102.43 396.6 1099.31 396.6ZM1164.82 399.24C1160.66 399.24 1157.46 398.28 1155.22 396.36C1153.06 394.44 1151.98 392.28 1151.98 389.88C1151.98 387.8 1152.74 386 1154.26 384.48C1155.78 382.96 1158.02 382.2 1160.98 382.2C1162.02 382.2 1163.22 382.32 1164.58 382.56C1166.02 382.72 1167.1 382.84 1167.82 382.92C1167.74 380.84 1167.26 378.88 1166.38 377.04C1165.58 375.2 1164.54 373.44 1163.26 371.76C1161.98 370 1160.78 368.48 1159.66 367.2C1157.18 371.92 1154.7 375.84 1152.22 378.96C1149.82 382.08 1147.18 385.04 1144.3 387.84C1142.86 389.28 1141.34 390 1139.74 390C1138.46 390 1137.42 389.56 1136.62 388.68C1135.82 387.72 1135.42 386.56 1135.42 385.2C1135.42 383.6 1135.98 382.12 1137.1 380.76L1138.66 378.84C1143.06 373.4 1146.38 368.92 1148.62 365.4C1149.98 363.08 1151.58 360 1153.42 356.16C1155.26 352.24 1157.06 348.2 1158.82 344.04C1160.34 340.52 1163.5 338.76 1168.3 338.76C1170.54 338.76 1172.1 338.96 1172.98 339.36C1173.86 339.76 1174.3 340.4 1174.3 341.28C1174.3 341.76 1174.14 342.52 1173.82 343.56C1173.5 344.6 1173.06 345.64 1172.5 346.68C1171.06 349.56 1170.34 352 1170.34 354C1170.34 355.2 1170.74 356.52 1171.54 357.96C1172.42 359.4 1173.74 361.2 1175.5 363.36C1178.06 366.72 1179.98 369.6 1181.26 372C1182.62 374.32 1183.3 376.88 1183.3 379.68C1183.3 380.48 1183.22 381.6 1183.06 383.04C1186.98 381.52 1191.58 377.48 1196.86 370.92C1197.82 369.8 1198.9 369.24 1200.1 369.24C1201.14 369.24 1201.94 369.72 1202.5 370.68C1203.14 371.64 1203.46 372.96 1203.46 374.64C1203.46 377.68 1202.7 380.16 1201.18 382.08C1197.18 387.04 1193.34 390.44 1189.66 392.28C1186.06 394.04 1181.58 395 1176.22 395.16C1173.02 397.88 1169.22 399.24 1164.82 399.24ZM1236.67 372.84C1237.71 372.84 1238.51 373.32 1239.07 374.28C1239.71 375.24 1240.03 376.56 1240.03 378.24C1240.03 381.12 1239.35 383.6 1237.99 385.68C1235.75 389.12 1232.79 391.8 1229.11 393.72C1225.51 395.64 1221.19 396.6 1216.15 396.6C1208.47 396.6 1202.51 394.32 1198.27 389.76C1194.03 385.12 1191.91 378.88 1191.91 371.04C1191.91 365.52 1193.07 360.4 1195.39 355.68C1197.71 350.88 1200.91 347.08 1204.99 344.28C1209.15 341.48 1213.83 340.08 1219.03 340.08C1223.67 340.08 1227.39 341.48 1230.19 344.28C1232.99 347 1234.39 350.72 1234.39 355.44C1234.39 360.96 1232.39 365.72 1228.39 369.72C1224.47 373.64 1217.75 376.76 1208.23 379.08C1210.15 382.76 1213.39 384.6 1217.95 384.6C1221.23 384.6 1223.91 383.84 1225.99 382.32C1228.15 380.8 1230.63 378.24 1233.43 374.64C1234.39 373.44 1235.47 372.84 1236.67 372.84ZM1216.99 351.84C1214.03 351.84 1211.51 353.56 1209.43 357C1207.43 360.44 1206.43 364.6 1206.43 369.48V369.72C1211.15 368.6 1214.87 366.92 1217.59 364.68C1220.31 362.44 1221.67 359.84 1221.67 356.88C1221.67 355.36 1221.23 354.16 1220.35 353.28C1219.55 352.32 1218.43 351.84 1216.99 351.84Z" fill="white"/>
<path d="M488.648 385.489C495.601 385.489 500.816 387.336 504.292 391.03C507.986 394.506 509.833 399.721 509.833 406.674C509.833 412.323 508.638 422.97 506.248 438.615C504.075 451.869 502.337 464.472 501.033 476.422C499.729 488.156 499.077 501.301 499.077 515.859C499.077 524.116 497.339 530.091 493.862 533.785C490.603 537.262 485.171 539 477.566 539C470.396 539 465.181 537.153 461.922 533.459C458.662 529.765 457.033 524.225 457.033 516.837C457.033 508.146 458.554 493.805 461.596 473.815C464.203 456.432 465.507 445.351 465.507 440.57C465.507 437.094 464.312 435.356 461.922 435.356C459.097 435.356 455.077 439.049 449.862 446.437C444.648 453.607 439.433 463.168 434.218 475.118C429.003 487.069 424.766 499.672 421.507 512.926C419.117 523.138 416.292 530.091 413.033 533.785C409.991 537.262 405.102 539 398.366 539C391.63 539 386.633 536.61 383.374 531.83C380.332 526.832 378.267 519.227 377.181 509.015C376.095 498.802 375.551 483.81 375.551 464.037C375.551 430.575 378.919 395.701 385.655 359.415C392.608 323.128 402.712 292.709 415.966 268.156C429.438 243.385 445.517 231 464.203 231C474.198 231 482.238 235.346 488.322 244.037C494.623 252.511 497.774 263.593 497.774 277.281C497.774 299.227 491.364 322.042 478.544 345.726C465.724 369.193 444.865 396.679 415.966 428.185C415.314 439.484 414.988 451.109 414.988 463.059C422.159 444.59 430.09 429.598 438.781 418.081C447.69 406.348 456.381 397.983 464.855 392.985C473.546 387.988 481.477 385.489 488.648 385.489ZM457.359 263.267C453.448 263.267 449.102 268.916 444.322 280.215C439.542 291.296 434.87 306.398 430.307 325.519C425.961 344.422 422.376 365.064 419.551 387.444C433.023 371.583 444.104 354.309 452.796 335.622C461.704 316.936 466.159 299.988 466.159 284.778C466.159 277.825 465.398 272.501 463.877 268.807C462.356 265.114 460.183 263.267 457.359 263.267Z" fill="white"/>
<path d="M390.681 464.689C393.506 464.689 395.679 465.993 397.2 468.6C398.938 471.207 399.807 474.793 399.807 479.356C399.807 488.047 397.743 494.783 393.615 499.563C384.272 511.079 374.059 520.531 362.978 527.919C351.896 535.306 339.185 539 324.844 539C280.519 539 258.356 507.82 258.356 445.459C258.356 435.899 258.681 426.23 259.333 416.452H246.622C240.104 416.452 235.649 415.257 233.259 412.867C231.086 410.477 230 406.674 230 401.459C230 389.291 234.889 383.207 244.667 383.207H263.244C266.938 359.306 272.588 337.469 280.193 317.696C287.798 297.923 296.923 282.17 307.57 270.437C318.435 258.704 330.059 252.837 342.444 252.837C351.57 252.837 358.741 256.857 363.956 264.896C369.17 272.936 371.778 283.04 371.778 295.207C371.778 328.886 357.654 358.22 329.407 383.207H365.911C369.388 383.207 371.886 383.968 373.407 385.489C374.928 387.01 375.689 389.835 375.689 393.963C375.689 408.956 363.412 416.452 338.859 416.452H299.096C298.662 427.316 298.444 435.79 298.444 441.874C298.444 464.472 301.052 480.333 306.267 489.459C311.699 498.585 320.173 503.148 331.689 503.148C341.032 503.148 349.289 500.323 356.459 494.674C363.63 489.025 372.104 480.551 381.881 469.252C384.489 466.21 387.422 464.689 390.681 464.689ZM333.644 284.126C330.385 284.126 326.691 288.254 322.563 296.511C318.652 304.551 314.849 315.849 311.156 330.407C307.679 344.748 304.746 360.719 302.356 378.319C315.175 367.237 324.736 354.852 331.037 341.163C337.556 327.257 340.815 314.654 340.815 303.356C340.815 290.536 338.425 284.126 333.644 284.126Z" fill="white"/>
</svg>
